<svg width="24" height="24" viewBox="0 0 24 24" fill="none" xmlns="http://www.w3.org/2000/svg">
<path d="M12 24C18.65 24 24 18.65 24 12C24 5.34996 18.65 0 12 0C5.34996 0 0 5.34996 0 12C0 18.65 5.34996 24 12 24Z" fill="#F5AC37"/>
<path fill-rule="evenodd" clip-rule="evenodd" d="M5.91747 5H11.4349C14.7907 5 17.3347 6.8515 18.2813 9.54475H20V11.1731H18.6434C18.6695 11.4304 18.6829 11.6929 18.6829 11.9589V11.9991C18.6829 12.2984 18.6661 12.5941 18.6324 12.8829H20V14.5104H18.2484C17.2775 17.1669 14.7537 19 11.4358 19H5.91747V14.5104H4V12.8829H5.91747V11.1731H4V9.54562H5.91747V5ZM7.45937 14.5104V17.5396H11.4341C13.888 17.5396 15.7103 16.326 16.5583 14.5104H7.45937ZM17.0307 12.8829H7.45937V11.1731H17.0341C17.0686 11.4418 17.0872 11.7174 17.0872 11.9991V12.0385C17.0872 12.3264 17.0678 12.6072 17.0307 12.882V12.8829ZM11.4358 6.45687C13.8998 6.45687 15.728 7.70287 16.5709 9.54387H7.45937V6.45775H11.4341L11.4358 6.45687Z" fill="white"/>
</svg>
