<svg width="24" height="24" viewBox="0 0 24 24" fill="none" xmlns="http://www.w3.org/2000/svg">
<path d="M12 24C18.65 24 24 18.65 24 12C24 5.34996 18.65 0 12 0C5.34996 0 0 5.34996 0 12C0 18.65 5.34996 24 12 24Z" fill="#2775CA"/>
<path d="M15.2996 13.8996C15.2996 12.1497 14.2496 11.5496 12.1496 11.2997C10.6496 11.0996 10.3496 10.6997 10.3496 9.99961C10.3496 9.29953 10.8496 8.84965 11.8496 8.84965C12.7496 8.84965 13.2496 9.14965 13.4996 9.89965C13.5496 10.0496 13.6996 10.1496 13.8496 10.1496H14.6495C14.8496 10.1496 14.9996 9.99961 14.9996 9.79969V9.74965C14.7995 8.64961 13.8995 7.79965 12.7496 7.69969V6.49969C12.7496 6.29965 12.5996 6.14965 12.3496 6.09961H11.5996C11.3996 6.09961 11.2496 6.24961 11.1995 6.49969V7.64965C9.69953 7.84969 8.74961 8.84965 8.74961 10.0997C8.74961 11.7497 9.74957 12.3996 11.8496 12.6497C13.2496 12.8997 13.6996 13.1997 13.6996 13.9997C13.6996 14.7997 12.9995 15.3497 12.0496 15.3497C10.7495 15.3497 10.2995 14.7996 10.1495 14.0496C10.0996 13.8497 9.94961 13.7496 9.79961 13.7496H8.94953C8.74961 13.7496 8.59961 13.8996 8.59961 14.0997V14.1497C8.79953 15.3996 9.59957 16.2996 11.2496 16.5497V17.7497C11.2496 17.9496 11.3996 18.0996 11.6495 18.1497H12.3995C12.5996 18.1497 12.7496 17.9997 12.7996 17.7497V16.5497C14.2996 16.2996 15.2996 15.2496 15.2996 13.8996Z" fill="white"/>
<path d="M9.44902 19.1499C5.54902 17.75 3.54898 13.4 4.99906 9.54992C5.74906 7.44992 7.39906 5.84996 9.44902 5.09996C9.64906 5 9.74902 4.85 9.74902 4.59992V3.89996C9.74902 3.69992 9.64906 3.54992 9.44902 3.5C9.39898 3.5 9.29902 3.5 9.24898 3.54992C4.49902 5.04992 1.89898 10.1 3.39898 14.85C4.29898 17.6499 6.44902 19.8 9.24898 20.7C9.44902 20.7999 9.64906 20.7 9.69898 20.4999C9.74902 20.45 9.74902 20.4 9.74902 20.3V19.5999C9.74902 19.4499 9.59902 19.25 9.44902 19.1499ZM14.7491 3.54992C14.549 3.44996 14.349 3.54992 14.2991 3.74996C14.249 3.8 14.249 3.84992 14.249 3.95V4.64996C14.249 4.85 14.399 5.04992 14.549 5.15C18.449 6.54992 20.4491 10.8999 18.999 14.75C18.249 16.85 16.599 18.45 14.549 19.2C14.349 19.2999 14.249 19.4499 14.249 19.7V20.4C14.249 20.6 14.349 20.75 14.549 20.7999C14.5991 20.7999 14.699 20.7999 14.7491 20.75C19.499 19.25 22.0991 14.1999 20.5991 9.44996C19.6991 6.59996 17.499 4.44992 14.7491 3.54992Z" fill="white"/>
</svg>
