<svg width="24" height="24" viewBox="0 0 24 24" fill="none" xmlns="http://www.w3.org/2000/svg">
<path d="M12 24C18.65 24 24 18.65 24 12C24 5.34996 18.65 0 12 0C5.34996 0 0 5.34996 0 12C0 18.65 5.34996 24 12 24Z" fill="#50AF95"/>
<path d="M10.7561 11.0954V8.38007H7.42969V6H16.725V8.4136H13.3986V11.0954H10.7561Z" fill="white"/>
<path fill-rule="evenodd" clip-rule="evenodd" d="M6 11.3975C6 10.4924 8.67358 9.75488 12 9.75488C15.3264 9.75488 18 10.4924 18 11.3975C18 12.3026 15.3264 13.0401 12 13.0401C8.67358 13.0401 6 12.3026 6 11.3975ZM17.5032 11.3978C17.2856 11.0625 15.4825 10.0233 12.0006 10.0233C8.51877 10.0233 6.71566 11.029 6.49805 11.3978C6.71566 11.733 8.51877 12.2358 12.0006 12.2358C15.5136 12.2358 17.2856 11.733 17.5032 11.3978Z" fill="white"/>
<path d="M13.3985 11.9335V10.0563C12.9633 10.0228 12.497 9.98926 12.0306 9.98926C11.5954 9.98926 11.1913 9.98926 10.7871 10.0228V11.9C11.1602 11.9 11.5954 11.9335 12.0306 11.9335C12.497 11.9671 12.9633 11.9671 13.3985 11.9335Z" fill="white"/>
<path d="M11.9994 13.0397C11.5641 13.0397 11.16 13.0397 10.7559 13.0062V18.001H13.3673V12.9727C12.932 13.0062 12.4657 13.0397 11.9994 13.0397Z" fill="white"/>
</svg>
