<svg width="48" height="50" viewBox="0 0 48 50" fill="none" xmlns="http://www.w3.org/2000/svg">
<rect x="16" y="44" width="16" height="6" rx="3" fill="url(#paint0_radial_11008_21083)"/>
<rect x="0.75" y="0.75" width="46.5" height="46.5" rx="11.25" fill="#090A23" stroke="#14162E" stroke-width="1.5"/>
<path d="M36.0479 26.7602C35.8553 27.6517 35.5905 28.495 35.2053 29.2901C35.1331 29.4588 35.0608 29.6274 34.9645 29.796C34.6516 30.3984 34.2904 30.9767 33.8811 31.5309C33.7126 31.7478 33.5441 31.9647 33.3755 32.1574C32.3644 33.3381 31.1125 34.3018 29.7161 35.0006C29.4753 35.1211 29.1864 35.2415 28.9216 35.362C28.4882 35.5548 28.0308 35.6993 27.5493 35.8439C25.7437 36.374 23.7936 36.4704 21.8435 36.0607C15.3672 34.7114 11.2021 28.3745 12.5503 21.8688C13.8986 15.3873 20.2304 11.2188 26.7308 12.5681C29.0179 13.05 31.1125 14.1825 32.7737 15.8209C35.6386 18.6882 36.8665 22.8086 36.0479 26.7602Z" fill="url(#paint1_linear_11008_21083)"/>
<path d="M24.2943 34.4453C23.5961 34.4453 22.922 34.3731 22.2479 34.2285C16.7827 33.096 13.2678 27.7228 14.3993 22.2532C14.953 19.6028 16.4938 17.3378 18.7569 15.844C21.02 14.3501 23.7165 13.8441 26.3648 14.3983C28.2908 14.8079 30.0483 15.7476 31.4687 17.1451C33.9003 19.5546 34.9356 23.0002 34.2133 26.3735C34.0689 27.1205 33.8281 27.8433 33.5151 28.5179C33.467 28.6384 33.3948 28.807 33.3225 28.9516C33.0577 29.4576 32.7447 29.9636 32.4077 30.3973C32.2632 30.566 32.1428 30.7588 31.9984 30.9274C31.1317 31.9394 30.0964 32.7346 28.9167 33.3369C28.7 33.4333 28.4834 33.5537 28.2667 33.6501C27.8333 33.8429 27.4722 33.9634 27.1111 34.0598C26.1721 34.3007 25.2332 34.4453 24.2943 34.4453ZM24.2943 15.073C22.5127 15.073 20.7793 15.5789 19.2625 16.5909C17.192 17.9402 15.7957 20.0125 15.2901 22.422C14.2549 27.4096 17.4569 32.3008 22.4405 33.3369C23.885 33.6502 25.4017 33.5778 26.8222 33.1682C27.1592 33.0718 27.4963 32.9755 27.8815 32.8068C28.0741 32.7104 28.2908 32.6141 28.4834 32.5177C29.5668 31.9635 30.5057 31.2407 31.3002 30.3251C31.4206 30.1805 31.565 30.0118 31.6854 29.8432C31.9984 29.4335 32.2873 28.9757 32.504 28.5179C32.5762 28.3975 32.6244 28.277 32.6725 28.1324C32.9614 27.5059 33.1781 26.8554 33.3225 26.1567C33.9726 23.0966 33.0336 19.9642 30.8187 17.7474C29.5427 16.4704 27.9297 15.603 26.1722 15.2416C25.5462 15.1452 24.9202 15.073 24.2943 15.073Z" fill="#F9B400"/>
<path d="M34.8845 29.9139C34.5956 30.4681 34.2585 31.0223 33.8974 31.5283C33.7289 31.7451 33.5603 31.962 33.3918 32.1548C32.3806 33.3354 31.1287 34.2992 29.7324 34.998C29.4916 35.1184 29.2027 35.2389 28.9379 35.3594C28.5045 35.5521 28.0471 35.6967 27.5656 35.8413L20.0781 28.3478L22.4616 27.0948L22.7505 26.5165L22.8227 25.36C22.8227 25.36 22.7264 21.1193 22.6301 20.9988C22.606 20.9506 23.3524 18.252 23.3524 18.252L24.195 20.1555L25.2543 18.252L35.5104 28.5164C35.4864 28.7333 34.9567 29.7453 34.8845 29.9139Z" fill="url(#paint2_linear_11008_21083)"/>
<path d="M23.4012 30.3463C23.016 30.3463 22.6308 30.3463 22.2456 30.3463C22.2456 29.7198 22.2456 29.0693 22.2456 28.4428C21.5233 28.3705 20.801 28.3946 20.0547 28.3946C20.2232 27.5031 20.2232 27.4308 20.2714 27.1658C20.2714 27.0935 20.3195 27.0694 20.3917 27.0694C20.6084 27.0694 20.8492 27.0694 21.0659 27.0694C21.4511 27.0694 21.4992 26.973 21.4992 26.6839C21.4992 25.1177 21.4992 23.5756 21.4992 22.0095C21.4992 21.5516 21.2103 21.383 20.8733 21.383C20.6084 21.383 20.3677 21.383 20.1028 21.383C20.1028 20.9975 20.1028 20.636 20.1028 20.2505C20.5121 20.2505 21.3307 20.2505 22.1011 20.2505C22.2455 20.2505 22.2456 20.2505 22.2456 20.13C22.2456 19.7204 22.2456 18.7084 22.2456 18.2988C22.6308 18.2988 23.016 18.2988 23.4012 18.2988C23.4012 18.9253 23.4012 19.5759 23.4012 20.2023C23.6901 20.2023 23.979 20.2023 24.2438 20.2023C24.2438 19.5518 24.2438 18.9253 24.2438 18.2988C24.6049 18.2988 24.942 18.2988 25.3031 18.2988C25.3272 18.4916 25.3031 20.0578 25.3031 20.1541C25.3031 20.2264 25.3272 20.2505 25.3994 20.2746C26.7236 20.4433 27.807 20.8529 27.9033 22.154C27.9273 22.6118 27.8792 23.0455 27.6144 23.407C27.4218 23.672 27.181 23.8166 27.0125 23.913C27.3495 24.0334 28.1922 24.2503 28.4811 25.1418C28.6015 25.5032 28.6015 25.8646 28.5533 26.2261C28.5052 26.6116 28.3607 26.973 28.144 27.3103C27.8792 27.72 27.494 27.9368 27.0606 28.1055C26.531 28.2982 25.9772 28.3946 25.4235 28.4187C25.3272 28.4187 25.3031 28.4428 25.3031 28.5392C25.3031 29.0934 25.3031 29.5994 25.3031 30.3463C24.942 30.3463 24.6049 30.3463 24.2438 30.3463C24.2438 29.7198 24.2438 29.0934 24.2438 28.4669C23.9549 28.4669 23.666 28.4669 23.4012 28.4669C23.4012 29.0934 23.4012 29.7198 23.4012 30.3463ZM23.4012 24.7563C23.4012 25.5514 23.4012 26.3225 23.4012 27.1417C24.5568 27.0935 25.1827 27.1417 25.8328 26.8043C26.1698 26.6357 26.3624 26.3706 26.3865 26.0092C26.4106 25.5996 26.2421 25.2864 25.905 25.0695C25.2791 24.6599 24.0994 24.7081 23.4252 24.7322L23.4012 24.7563ZM23.4012 21.5035C23.4012 22.2263 23.4012 22.9492 23.4012 23.672C23.8345 23.7202 24.6772 23.6479 25.0624 23.5515C26.218 23.2383 26.0495 22.0335 25.3513 21.7444C24.629 21.4071 23.9549 21.4794 23.4012 21.5035Z" fill="url(#paint3_linear_11008_21083)"/>
<defs>
<radialGradient id="paint0_radial_11008_21083" cx="0" cy="0" r="1" gradientUnits="userSpaceOnUse" gradientTransform="translate(24 47) rotate(90) scale(3 8)">
<stop stop-color="#FFD18B"/>
<stop offset="1" stop-color="#E68F0D"/>
</radialGradient>
<linearGradient id="paint1_linear_11008_21083" x1="12.3258" y1="24.3136" x2="36.301" y2="24.3136" gradientUnits="userSpaceOnUse">
<stop offset="0.00289017" stop-color="#FFD44F"/>
<stop offset="1" stop-color="#FFA607"/>
</linearGradient>
<linearGradient id="paint2_linear_11008_21083" x1="23.7962" y1="24.4261" x2="29.316" y2="29.9416" gradientUnits="userSpaceOnUse">
<stop stop-color="#FAA404"/>
<stop offset="1" stop-color="#FF7904" stop-opacity="0"/>
</linearGradient>
<linearGradient id="paint3_linear_11008_21083" x1="28.1846" y1="30.2676" x2="20.681" y2="20.8516" gradientUnits="userSpaceOnUse">
<stop stop-color="#FFE491"/>
<stop offset="1" stop-color="white"/>
</linearGradient>
</defs>
</svg>
