<svg width="24" height="24" viewBox="0 0 24 24" fill="none" xmlns="http://www.w3.org/2000/svg">
<g id="Layer 2">
<g id="Layer 1">
<path id="Vector" d="M7.33898 10.085L12 5.42398L16.6631 10.087L19.3751 7.37498L12 0L4.62718 7.37277L7.33908 10.0848L7.33898 10.085ZM0 12L2.71209 9.28748L5.42398 11.9994L2.71189 14.7115L0 12ZM7.33898 13.9152L12 18.5759L16.663 13.913L19.3765 16.6236L19.3751 16.625L12 23.9999L4.62718 16.6271L4.62334 16.6233L7.33927 13.915L7.33898 13.9152ZM18.5759 12.0011L21.288 9.28902L23.9999 12.0009L21.2879 14.713L18.5759 12.0011Z" fill="#F3BA2F"/>
<path id="Vector_2" d="M14.75 11.9981H14.7512L11.9995 9.24609L9.96551 11.2795L9.73185 11.5133L9.24993 11.9953L9.24609 11.999L9.24993 12.003L11.9995 14.7529L14.7514 12.001L14.7527 11.9994L14.7502 11.9981" fill="#F3BA2F"/>
</g>
</g>
</svg>
