<svg width="24" height="24" viewBox="0 0 24 24" fill="none" xmlns="http://www.w3.org/2000/svg">
<g id="Layer x0020 1">
<g id="1421344023328">
<path id="Vector" d="M23.6227 14.9224C22.02 21.351 15.5088 25.2634 9.07941 23.6603C2.65271 22.0576 -1.25963 15.546 0.343757 9.1179C1.94574 2.68856 8.4569 -1.22407 14.8843 0.378612C21.3132 1.9813 25.2253 8.49358 23.6225 14.9225L23.6226 14.9224H23.6227Z" fill="#F7931A"/>
<path id="Vector_2" d="M17.291 10.2933C17.5299 8.69633 16.3141 7.83791 14.6516 7.26526L15.1909 5.10207L13.8741 4.77396L13.3491 6.88019C13.0029 6.79385 12.6474 6.7125 12.2941 6.63185L12.8229 4.51171L11.5069 4.18359L10.9673 6.34608C10.6808 6.28086 10.3994 6.2164 10.1265 6.14847L10.128 6.14167L8.31209 5.68821L7.9618 7.09464C7.9618 7.09464 8.93876 7.31858 8.91817 7.33236C9.4514 7.46545 9.54783 7.81844 9.53182 8.09822L8.91747 10.5626C8.95418 10.5719 9.00181 10.5854 9.05437 10.6065C9.01043 10.5956 8.96369 10.5837 8.91518 10.5721L8.05407 14.0244C7.9889 14.1864 7.82349 14.4295 7.45068 14.3372C7.46388 14.3563 6.49361 14.0983 6.49361 14.0983L5.83984 15.6056L7.55345 16.0328C7.87224 16.1128 8.18463 16.1964 8.49228 16.2751L7.94737 18.4631L9.26265 18.7912L9.80228 16.6264C10.1616 16.724 10.5103 16.8139 10.8517 16.8987L10.3139 19.0533L11.6307 19.3814L12.1756 17.1975C14.421 17.6225 16.1094 17.4512 16.82 15.4202C17.3927 13.785 16.7915 12.8418 15.6102 12.2268C16.4706 12.0283 17.1187 11.4624 17.2915 10.2934L17.2911 10.2931L17.291 10.2933ZM14.2825 14.5121C13.8755 16.1473 11.1224 15.2633 10.2298 15.0417L10.9529 12.1429C11.8454 12.3658 14.7078 12.8067 14.2825 14.5121H14.2825ZM14.6897 10.2696C14.3185 11.7569 12.027 11.0013 11.2837 10.816L11.9392 8.18703C12.6826 8.37232 15.0764 8.71814 14.6898 10.2696H14.6897Z" fill="white"/>
</g>
</g>
</svg>
