<svg width="124" height="101" viewBox="0 0 124 101" fill="none" xmlns="http://www.w3.org/2000/svg">
<g filter="url(#filter0_d_7622_44355)">
<path d="M105.957 65.0649C89.0266 82.5268 56.1607 91.951 32.5493 86.1143C21.4023 83.3587 14.3107 77.6945 11.7114 70.6447L8.78585 60.6102C11.0811 68.1011 18.3002 74.1541 29.9452 77.0327C53.5567 82.8695 86.4225 73.4454 103.353 55.9834C111.668 47.4072 114.593 38.4873 112.62 30.9382L112.387 30.1264C112.471 30.395 112.549 30.6657 112.62 30.9382L115.224 40.0195C117.198 47.5684 114.272 56.4886 105.957 65.0649Z" fill="url(#paint0_radial_7622_44355)" stroke="#070720" stroke-width="2"/>
<path d="M103.217 55.5142C86.2864 72.9761 53.4205 82.4002 29.8091 76.5635C6.19769 70.7268 0.781851 51.8396 17.7125 34.3775C34.6431 16.9156 67.5089 7.49146 91.1203 13.3281C114.732 19.165 120.147 38.0523 103.217 55.5142Z" fill="url(#paint1_radial_7622_44355)" stroke="#070720" stroke-width="2"/>
<path d="M78.9289 47.2655C78.8356 45.7239 77.7185 44.4046 75.5769 43.3083C80.0726 42.8802 83.5625 41.1304 86.0485 38.0585C86.9613 36.9474 87.4644 35.9133 87.5584 34.9545C87.652 33.9955 87.3594 33.1335 86.6771 32.3675C85.9964 31.6011 85.1034 30.925 84.002 30.3388C82.9003 29.7527 81.5318 29.1865 79.8974 28.6408L85.8849 22.4654L80.7825 21.204L74.9613 27.2079C74.0778 26.9895 72.7146 26.6727 70.8716 26.2577L76.7403 20.2048L71.6373 18.9434L65.6497 25.1188C64.9046 24.9549 63.8254 24.6984 62.4116 24.3489L55.411 22.5878L51.5143 26.6067L55.1921 27.5159C56.871 27.9309 57.3153 28.7295 56.5256 29.9113L49.7063 36.9445C49.9275 36.9992 50.0959 37.0513 50.2127 37.1003L49.6823 36.9692L40.1313 46.8201C39.1471 47.6094 38.1024 47.8679 36.9977 47.5948L33.3201 46.6858L27.9446 50.9165L34.5718 52.5547C34.9916 52.6585 35.5947 52.8126 36.3831 53.0167C37.1703 53.2215 37.7624 53.373 38.1602 53.4713L32.1015 59.7201L37.2054 60.9819L43.1929 54.8064C44.1041 55.0525 45.4439 55.3936 47.211 55.8304L41.2476 61.9811L46.3501 63.2424L52.4088 56.9935C54.2839 57.3762 56.009 57.6516 57.5859 57.8178C59.1635 57.9843 60.7787 58.0348 62.4321 57.9672C64.085 57.9002 65.6198 57.6868 67.0356 57.3279C68.4513 56.9696 69.8683 56.4183 71.2881 55.6754C72.706 54.932 74.0554 53.9999 75.3344 52.8778C77.8241 50.6789 79.0217 48.8077 78.9289 47.2655ZM66.6946 30.6926C66.8494 30.7308 67.2896 30.8345 68.0156 31.0038C68.742 31.173 69.346 31.3123 69.8289 31.4214C70.3118 31.5307 70.9326 31.7096 71.6917 31.958C72.4505 32.2063 73.0661 32.4396 73.5391 32.6577C74.0122 32.8757 74.4895 33.1608 74.9694 33.5124C75.4507 33.8641 75.7587 34.2239 75.8945 34.5916C76.0311 34.9594 76.0352 35.386 75.9069 35.8707C75.7794 36.3556 75.4542 36.8675 74.9316 37.4066C74.4881 37.864 73.9848 38.2563 73.4217 38.5831C72.8592 38.9098 72.2553 39.1505 71.6126 39.3055C70.9698 39.4606 70.3462 39.5802 69.7445 39.6641C69.1431 39.7482 68.4603 39.7668 67.6981 39.7201C66.9359 39.6734 66.2799 39.6227 65.731 39.5679C65.1815 39.5132 64.5305 39.408 63.7778 39.2522C63.025 39.0963 62.4563 38.9764 62.0732 38.8917C61.6897 38.8069 61.1762 38.6799 60.5322 38.5108C59.888 38.3415 59.5116 38.2432 59.4009 38.2157L66.6951 30.6926L66.6947 30.6925L66.6946 30.6926ZM64.4485 50.8251C63.8735 51.149 63.2864 51.4092 62.6858 51.6052C62.0853 51.8005 61.4109 51.9379 60.6644 52.0162C59.9173 52.0953 59.2261 52.1367 58.5917 52.142C57.9561 52.1474 57.2327 52.1096 56.4201 52.0307C55.606 51.951 54.91 51.8645 54.3284 51.7718C53.7477 51.679 53.0703 51.5519 52.295 51.3908C51.5208 51.2292 50.923 51.0969 50.5035 50.9932C50.0837 50.8895 49.5577 50.7539 48.9249 50.5875C48.2913 50.4214 47.887 50.3163 47.7101 50.2727L55.7413 41.9894C55.9178 42.0331 56.4502 42.1548 57.3391 42.3539C58.2279 42.5532 58.9475 42.7216 59.4997 42.8581C60.0519 42.9947 60.791 43.2072 61.7155 43.497C62.6397 43.7857 63.3861 44.061 63.9543 44.323C64.5216 44.5849 65.0982 44.9145 65.6848 45.313C66.2708 45.7109 66.6647 46.1171 66.8658 46.5312C67.0662 46.946 67.1109 47.4221 66.9985 47.9616C66.8871 48.501 66.5458 49.0648 65.9754 49.6531C65.5313 50.111 65.0232 50.5011 64.4485 50.8251Z" fill="#070720"/>
<path d="M9.60352 63.4805C14.6932 70.0564 17.9598 72.8125 25.2541 74.526L28.1352 84.5734C21.2358 82.1751 17.4513 80.5748 12.2787 72.81L9.60352 63.4805Z" fill="#070720"/>
<path d="M30.6094 76.876L35.5523 77.7886L38.4333 87.8359L33.4904 86.9232L30.6094 76.876Z" fill="#070720"/>
</g>
<defs>
<filter id="filter0_d_7622_44355" x="6.85254" y="10.5996" width="109.965" height="90.2432" filterUnits="userSpaceOnUse" color-interpolation-filters="sRGB">
<feFlood flood-opacity="0" result="BackgroundImageFix"/>
<feColorMatrix in="SourceAlpha" type="matrix" values="0 0 0 0 0 0 0 0 0 0 0 0 0 0 0 0 0 0 127 0" result="hardAlpha"/>
<feOffset dy="12"/>
<feComposite in2="hardAlpha" operator="out"/>
<feColorMatrix type="matrix" values="0 0 0 0 0.027451 0 0 0 0 0.027451 0 0 0 0 0.12549 0 0 0 0.1 0"/>
<feBlend mode="normal" in2="BackgroundImageFix" result="effect1_dropShadow_7622_44355"/>
<feBlend mode="normal" in="SourceGraphic" in2="effect1_dropShadow_7622_44355" result="shape"/>
</filter>
<radialGradient id="paint0_radial_7622_44355" cx="0" cy="0" r="1" gradientUnits="userSpaceOnUse" gradientTransform="translate(66.1231 64.6675) rotate(74) scale(20.4509 53.9977)">
<stop stop-color="#779DFF"/>
<stop offset="1" stop-color="#565CE4"/>
</radialGradient>
<radialGradient id="paint1_radial_7622_44355" cx="0" cy="0" r="1" gradientUnits="userSpaceOnUse" gradientTransform="translate(60.4647 44.9459) rotate(74) scale(31.0321 53.999)">
<stop stop-color="white"/>
<stop offset="1" stop-color="#CDDFF2"/>
</radialGradient>
</defs>
</svg>
