<svg width="96" height="83" viewBox="0 0 96 83" fill="none" xmlns="http://www.w3.org/2000/svg">
<g filter="url(#filter0_d_6192_40198)">
<path d="M69.446 68.1649C51.3056 72.1816 26.6167 64.1597 14.3018 50.2474C8.48788 43.6794 6.47127 36.9728 7.87115 31.2996L10.3499 23.5571C8.56934 29.3848 10.4988 36.3976 16.5725 43.259C28.8874 57.1712 53.5763 65.1932 71.7167 61.1765C80.626 59.2036 86.2992 54.694 88.3064 48.9668L88.5093 48.3421C88.4466 48.552 88.3789 48.7602 88.3064 48.9668L86.0357 55.9551C84.0285 61.6823 78.3554 66.192 69.446 68.1649Z" fill="url(#paint0_radial_6192_40198)" stroke="#070720" stroke-width="2"/>
<path d="M71.8325 60.8148C53.6921 64.8316 29.0032 56.8097 16.6883 42.8974C4.37333 28.9852 9.09579 14.4509 27.2362 10.4342C45.3766 6.41747 70.0655 14.4394 82.3804 28.3516C94.6951 42.2638 89.9726 56.798 71.8325 60.8148Z" fill="url(#paint1_radial_6192_40198)" stroke="#070720" stroke-width="2"/>
<path d="M8.29446 33.1067L9.11102 30.5936C9.30527 31.7574 9.56423 32.8276 9.91951 33.8468C10.6643 35.9833 11.8125 37.8411 13.5769 39.8607L11.8527 45.1673C10.7878 43.6406 9.98351 42.3109 9.40554 40.8124C8.65334 38.8621 8.26256 36.5617 8.29446 33.1067Z" fill="#070720" stroke="#070720" stroke-width="2"/>
<path d="M15.6868 50.9023L17.5052 45.3058L18.6293 46.4305L16.8109 52.0271L15.6868 50.9023Z" fill="#070720" stroke="#070720" stroke-width="2"/>
<path d="M42.9673 31.7979L39.6641 28.0664L39.2739 27.6256L38.6991 27.7528L28.1358 30.0918L24.575 26.0691L52.6719 19.8478L56.2328 23.8705L46.7512 25.9699L45.0928 26.3371L46.2186 27.6091L48.7559 30.4754L48.7481 30.4768L49.9251 31.8065L52.5797 34.8053C52.0034 34.951 51.2534 35.131 50.3101 35.3399L50.3101 35.3399C48.7464 35.6861 47.4796 35.9194 46.7315 36.0478L43.3774 32.2588L42.9691 31.7975L42.9673 31.7979ZM59.2314 50.1716L49.2102 38.8506C49.8799 38.7171 50.6984 38.5473 51.6282 38.3414C53.3184 37.9672 54.3937 37.7021 55.0088 37.542L55.5018 38.0989L65.0483 48.8837L59.2314 50.1716ZM68.0685 31.4423C68.0974 31.3128 68.1102 31.1847 68.1079 31.0592C68.2036 31.1095 68.2673 31.1536 68.3079 31.187C68.285 31.2286 68.2453 31.29 68.177 31.3716C68.1402 31.4155 68.0986 31.4611 68.0523 31.5083C68.0581 31.4865 68.0635 31.4645 68.0685 31.4423Z" fill="#070720" stroke="#070720" stroke-width="2"/>
</g>
<defs>
<filter id="filter0_d_6192_40198" x="6.44336" y="8.39844" width="83.7959" height="73.8018" filterUnits="userSpaceOnUse" color-interpolation-filters="sRGB">
<feFlood flood-opacity="0" result="BackgroundImageFix"/>
<feColorMatrix in="SourceAlpha" type="matrix" values="0 0 0 0 0 0 0 0 0 0 0 0 0 0 0 0 0 0 127 0" result="hardAlpha"/>
<feOffset dy="12"/>
<feComposite in2="hardAlpha" operator="out"/>
<feColorMatrix type="matrix" values="0 0 0 0 0.027451 0 0 0 0 0.027451 0 0 0 0 0.12549 0 0 0 0.1 0"/>
<feBlend mode="normal" in2="BackgroundImageFix" result="effect1_dropShadow_6192_40198"/>
<feBlend mode="normal" in="SourceGraphic" in2="effect1_dropShadow_6192_40198" result="shape"/>
</filter>
<radialGradient id="paint0_radial_6192_40198" cx="0" cy="0" r="1" gradientUnits="userSpaceOnUse" gradientTransform="translate(44.6058 50.802) rotate(108) scale(15.9064 40.9985)">
<stop stop-color="#779DFF"/>
<stop offset="1" stop-color="#565CE4"/>
</radialGradient>
<radialGradient id="paint1_radial_6192_40198" cx="0" cy="0" r="1" gradientUnits="userSpaceOnUse" gradientTransform="translate(49.5342 35.6245) rotate(108) scale(24.1363 40.9994)">
<stop stop-color="white"/>
<stop offset="1" stop-color="#CDDFF2"/>
</radialGradient>
</defs>
</svg>
