<svg width="102" height="102" viewBox="0 0 102 102" fill="none" xmlns="http://www.w3.org/2000/svg">
<rect x="0.625" y="0.625977" width="100.75" height="100.75" fill="#090A23"/>
<path d="M82.0354 58.741C77.7616 75.884 60.3985 86.3169 43.2534 82.042C26.1156 77.7681 15.6826 60.4039 19.9584 43.2623C24.2303 26.1174 41.5934 15.6837 58.7332 19.9575C75.877 24.2314 86.3093 41.5975 82.035 58.7413L82.0353 58.741H82.0354Z" fill="#50AF95"/>
<path fill-rule="evenodd" clip-rule="evenodd" d="M55.0498 54.6276V54.6276C54.8235 54.6446 53.6544 54.7143 51.0467 54.7143C48.9726 54.7143 47.4999 54.6521 46.9833 54.6276V54.6276C38.9677 54.275 32.9848 52.8797 32.9848 51.209C32.9848 49.5384 38.9677 48.145 46.9833 47.7867V53.2379C47.5075 53.2756 49.0084 53.3642 51.0825 53.3642C53.5715 53.3642 54.8178 53.2605 55.0422 53.2398V47.7905C63.0408 48.1469 69.0106 49.5422 69.0106 51.209C69.0106 52.8759 63.0427 54.2712 55.0422 54.6257V54.6257L55.0498 54.6276ZM55.0498 47.2267V42.3487H66.2124V34.9102H35.8207V42.3487H46.9814V47.2248C37.9099 47.6416 31.0879 49.4385 31.0879 51.5918C31.0879 53.7452 37.9099 55.5402 46.9814 55.9588V71.5902H55.0479V55.9532C64.0986 55.5365 70.9093 53.7414 70.9093 51.59C70.9093 49.4385 64.1043 47.6434 55.0479 47.2248V47.2248L55.0498 47.2267Z" fill="white"/>
</svg>
