<svg width="318" height="163" viewBox="0 0 318 163" fill="none" xmlns="http://www.w3.org/2000/svg">
<g clip-path="url(#clip0_2356_61258)">
<rect width="318" height="163" fill="#D3DBE2"/>
<circle cx="35.5" cy="46.5" r="135.5" fill="#CDD5DC"/>
<g clip-path="url(#clip1_2356_61258)">
<g clip-path="url(#clip2_2356_61258)">
<path d="M121.191 88.0777V86.282H132.112C133.183 86.282 133.683 85.8848 133.683 85.1596V83.6228C133.683 82.8977 133.183 82.5005 132.112 82.5005H124.724C121.869 82.5005 120.78 81.3091 120.78 79.5651V78.8572C120.78 77.1132 121.869 75.9219 124.724 75.9219H135.36V77.7176H124.724C123.653 77.7176 123.154 78.1148 123.154 78.84V79.5824C123.154 80.3076 123.653 80.7048 124.724 80.7048H132.112C134.968 80.7048 136.056 81.8961 136.056 83.6401V85.1423C136.056 86.8863 134.968 88.0777 132.112 88.0777L121.191 88.0777Z" fill="#8E9DAB"/>
<path d="M148.846 83.5884V88.0777H146.472V75.9219H156.769C159.625 75.9219 160.713 77.1133 160.713 78.8572V80.653C160.713 82.3969 159.625 83.5883 156.769 83.5883L148.846 83.5884ZM158.34 78.84C158.34 78.1148 157.84 77.7176 156.769 77.7176H148.846V81.7927H156.769C157.84 81.7927 158.34 81.3955 158.34 80.6703V78.84Z" fill="#8E9DAB"/>
<path d="M171.001 88.0777V75.9219H183.921V77.7176H173.375V80.7566H183.386V82.5523H173.375V86.282H183.921V88.0777H171.001Z" fill="#8E9DAB"/>
<path d="M208.115 88.0777L201.636 78.2875L195.051 88.0777H192.41L200.762 75.9219H202.493L210.791 88.0777H208.115Z" fill="#8E9DAB"/>
<path d="M232.931 88.0777L227.327 83.2257L221.759 88.0777H218.654L225.828 81.9998L218.654 75.9219H221.741L227.327 80.7911L232.913 75.9219H235.964L228.844 81.9135L236 88.0777H232.931Z" fill="#8E9DAB"/>
<path d="M82.7663 69.7399C81.374 71.087 82.7564 73.0311 85.0093 75.9118C84.6775 74.3772 84.5756 73.2647 85.4925 72.3776C86.4094 71.4905 87.5592 71.589 89.1452 71.9101C86.1679 69.7303 84.1586 68.3927 82.7663 69.7399Z" fill="#8E9DAB"/>
<path d="M85.0093 75.9141C85.3419 77.4526 85.9056 79.4153 85.9056 82.0007C85.9056 84.5861 85.3419 86.5488 85.0093 88.0873C86.7374 85.8775 88.4421 83.6347 88.4421 82.0007C88.4421 80.3666 86.7374 78.1239 85.0093 75.9141Z" fill="#B7C3CF"/>
<path d="M85.4925 91.6201C84.5757 90.733 84.6775 89.6205 85.0093 88.0859C82.7564 90.9666 81.374 92.9107 82.7663 94.2579C84.1586 95.605 86.1679 94.2674 89.1453 92.0877C87.5592 92.4087 86.4094 92.5073 85.4925 91.6201Z" fill="#8E9DAB"/>
<path d="M108.106 69.7399C106.713 68.3927 104.704 69.7303 101.727 71.9101C103.313 71.589 104.462 71.4905 105.379 72.3776C106.296 73.2648 106.194 74.3772 105.863 75.9118C108.115 73.0311 109.498 71.087 108.106 69.7399Z" fill="#8E9DAB"/>
<path d="M95.436 72.7774C92.7639 72.7774 90.7353 72.232 89.1453 71.9102C91.4291 73.5822 93.7471 75.2316 95.436 75.2316C97.1249 75.2316 99.4428 73.5822 101.727 71.9102C100.137 72.232 98.1081 72.7774 95.436 72.7774Z" fill="#B7C3CF"/>
<path d="M95.436 88.7656C93.7471 88.7656 91.4291 90.415 89.1453 92.0871C90.7353 91.7652 92.7639 91.2198 95.436 91.2198C98.1081 91.2198 100.137 91.7652 101.727 92.0871C99.4428 90.415 97.1248 88.7656 95.436 88.7656Z" fill="#B7C3CF"/>
<path d="M105.863 75.9141C105.53 77.4526 104.966 79.4153 104.966 82.0007C104.966 84.5861 105.53 86.5488 105.863 88.0873C104.134 85.8775 102.43 83.6347 102.43 82.0007C102.43 80.3666 104.134 78.1239 105.863 75.9141Z" fill="#B7C3CF"/>
<path d="M105.379 91.6201C106.296 90.733 106.194 89.6205 105.863 88.0859C108.115 90.9666 109.498 92.9107 108.106 94.2579C106.713 95.605 104.704 94.2674 101.727 92.0877C103.313 92.4087 104.462 92.5073 105.379 91.6201Z" fill="#8E9DAB"/>
<path d="M108.327 69.527C105.586 66.8742 99.5951 75.1001 95.436 75.1001C91.2769 75.1001 85.2864 66.8742 82.5446 69.527C79.8029 72.1797 88.3046 77.9759 88.3046 82C88.3046 86.0241 79.8029 91.8202 82.5446 94.473C85.2864 97.1258 91.2769 88.8999 95.436 88.8999C99.595 88.8999 105.586 97.1258 108.327 94.473C111.069 91.8202 102.567 86.0241 102.567 82C102.567 77.9759 111.069 72.1797 108.327 69.527ZM107.884 94.0441C105.739 96.1191 99.292 88.705 95.436 88.6573C91.5799 88.705 85.1326 96.1191 82.988 94.0441C80.8433 91.969 88.5061 85.7309 88.5554 82C88.5061 78.2691 80.8433 72.031 82.988 69.9559C85.1326 67.8809 91.58 75.295 95.436 75.3427C99.292 75.295 105.739 67.8809 107.884 69.9559C110.029 72.031 102.366 78.2691 102.316 82C102.366 85.7309 110.029 91.969 107.884 94.0441Z" fill="#8E9DAB"/>
</g>
</g>
</g>
<defs>
<clipPath id="clip0_2356_61258">
<rect width="318" height="163" fill="white"/>
</clipPath>
<clipPath id="clip1_2356_61258">
<rect width="154" height="26" fill="white" transform="translate(82 69)"/>
</clipPath>
<clipPath id="clip2_2356_61258">
<rect width="154" height="26" fill="white" transform="translate(82 69)"/>
</clipPath>
</defs>
</svg>
