<svg width="552" height="210" viewBox="0 0 552 210" fill="none" xmlns="http://www.w3.org/2000/svg">
<rect width="552" height="40" fill="white" fill-opacity="0.04"/>
<path fill-rule="evenodd" clip-rule="evenodd" d="M24 20C24 16.6863 26.6863 14 30 14H114C117.314 14 120 16.6863 120 20C120 23.3137 117.314 26 114 26H30C26.6863 26 24 23.3137 24 20ZM277 20C277 16.6863 279.686 14 283 14H321C324.314 14 327 16.6863 327 20C327 23.3137 324.314 26 321 26H283C279.686 26 277 23.3137 277 20ZM464 14C460.686 14 458 16.6863 458 20C458 23.3137 460.686 26 464 26H502C505.314 26 508 23.3137 508 20C508 16.6863 505.314 14 502 14H464Z" fill="url(#paint0_linear_12396_16630)" fill-opacity="0.1"/>
<path fill-rule="evenodd" clip-rule="evenodd" d="M66 61.9824C62.6863 61.9824 60 64.6687 60 67.9824C60 71.2961 62.6863 73.9824 66 73.9824H124C127.314 73.9824 130 71.2961 130 67.9824C130 64.6687 127.314 61.9824 124 61.9824H66ZM148 61.9824C144.686 61.9824 142 64.6687 142 67.9824C142 71.2961 144.686 73.9824 148 73.9824H160C163.314 73.9824 166 71.2961 166 67.9824C166 64.6687 163.314 61.9824 160 61.9824H148ZM277 67.9824C277 64.6687 279.686 61.9824 283 61.9824H341C344.314 61.9824 347 64.6687 347 67.9824C347 71.2961 344.314 73.9824 341 73.9824H283C279.686 73.9824 277 71.2961 277 67.9824ZM464 61.9824C460.686 61.9824 458 64.6687 458 67.9824C458 71.2961 460.686 73.9824 464 73.9824H522C525.314 73.9824 528 71.2961 528 67.9824C528 64.6687 525.314 61.9824 522 61.9824H464Z" fill="url(#paint1_linear_12396_16630)" fill-opacity="0.1"/>
<g filter="url(#filter0_d_12396_16630)">
<path d="M45.8817 62.944C48.6609 66.786 46.9081 72.615 42.011 76.1575C37.1272 79.6904 31.1971 79.3742 28.4104 75.5219C25.609 71.6494 26.9683 65.449 31.8278 61.9337C36.6874 58.4183 43.0805 59.0717 45.8817 62.944Z" stroke="url(#paint2_linear_12396_16630)" stroke-width="0.879357"/>
<path d="M45.0657 60.9487C49.1207 65.7541 48.0733 71.5646 42.4324 76.1426C36.6242 80.4253 30.3237 79.3922 27.012 75.1799C23.7004 70.9677 24.915 63.9658 30.058 60.2454C35.201 56.525 42.0147 56.7311 45.0657 60.9487Z" fill="url(#paint3_linear_12396_16630)"/>
<path d="M44.4731 60.8369C45.8663 62.7627 46.0968 65.1856 45.3438 67.6042C44.5898 70.0261 42.8523 72.4229 40.351 74.2323C35.3203 77.8715 29.2853 77.6194 26.5041 73.7748C23.7087 69.9105 25.1634 63.6286 30.1697 60.0071C35.1762 56.3855 41.6778 56.9727 44.4731 60.8369Z" stroke="url(#paint4_linear_12396_16630)" stroke-width="0.879357"/>
<path d="M43.35 60.8426C45.654 64.0276 44.3601 69.5096 39.5369 72.9987C34.7137 76.4878 29.1021 76.0011 26.7981 72.8161C24.4941 69.6311 25.788 64.1491 30.6112 60.66C35.4344 57.1709 41.046 57.6576 43.35 60.8426Z" fill="#FFD93B" stroke="url(#paint5_linear_12396_16630)" stroke-width="2.44266"/>
<path d="M42.1691 61.7008C43.1609 63.0718 43.2915 64.8911 42.6684 66.7428C42.0455 68.5941 40.6728 70.4609 38.691 71.8945C36.7092 73.3281 34.5066 74.0476 32.5534 74.0599C30.5997 74.0722 28.9127 73.3789 27.9209 72.0078C26.929 70.6367 26.7985 68.8175 27.4216 66.9658C28.0445 65.1145 29.4171 63.2477 31.3989 61.8141C33.3808 60.3805 35.5833 59.661 37.5366 59.6487C39.4902 59.6364 41.1773 60.3297 42.1691 61.7008Z" stroke="url(#paint6_linear_12396_16630)" stroke-width="0.390825"/>
<g filter="url(#filter1_f_12396_16630)">
<path d="M46.0984 66.236L47.5347 68.525C47.9798 65.9096 47.0067 63.8161 46.6242 63.2354C46.3216 62.6681 45.7601 61.8712 45.0988 60.9968C43.3437 58.2529 39.644 55.8056 33.8928 57.6331C27.0526 59.9855 24.7853 65.5289 24.5421 67.9766L45.5137 65.968L46.0984 66.236Z" fill="url(#paint7_linear_12396_16630)" fill-opacity="0.3"/>
</g>
</g>
<g filter="url(#filter2_d_12396_16630)">
<path d="M45.8817 118.944C48.6609 122.786 46.9081 128.615 42.011 132.158C37.1272 135.69 31.1971 135.374 28.4104 131.522C25.609 127.649 26.9683 121.449 31.8278 117.934C36.6874 114.418 43.0805 115.072 45.8817 118.944Z" stroke="url(#paint8_linear_12396_16630)" stroke-width="0.879357"/>
<path d="M45.0657 116.949C49.1207 121.754 48.0733 127.565 42.4324 132.143C36.6242 136.425 30.3237 135.392 27.012 131.18C23.7004 126.968 24.915 119.966 30.058 116.245C35.201 112.525 42.0147 112.731 45.0657 116.949Z" fill="url(#paint9_linear_12396_16630)"/>
<path d="M44.4731 116.837C45.8663 118.763 46.0968 121.186 45.3438 123.604C44.5898 126.026 42.8523 128.423 40.351 130.232C35.3203 133.872 29.2853 133.619 26.5041 129.775C23.7087 125.91 25.1634 119.629 30.1697 116.007C35.1762 112.385 41.6778 112.973 44.4731 116.837Z" stroke="url(#paint10_linear_12396_16630)" stroke-width="0.879357"/>
<path d="M43.35 116.843C45.654 120.028 44.3601 125.51 39.5369 128.999C34.7137 132.488 29.1021 132.001 26.7981 128.816C24.4941 125.631 25.788 120.149 30.6112 116.66C35.4344 113.171 41.046 113.658 43.35 116.843Z" fill="#FFD93B" stroke="url(#paint11_linear_12396_16630)" stroke-width="2.44266"/>
<path d="M42.1691 117.701C43.1609 119.072 43.2915 120.891 42.6684 122.743C42.0455 124.594 40.6728 126.461 38.691 127.894C36.7092 129.328 34.5066 130.048 32.5534 130.06C30.5997 130.072 28.9127 129.379 27.9209 128.008C26.929 126.637 26.7985 124.817 27.4216 122.966C28.0445 121.115 29.4171 119.248 31.3989 117.814C33.3808 116.38 35.5833 115.661 37.5366 115.649C39.4902 115.636 41.1773 116.33 42.1691 117.701Z" stroke="url(#paint12_linear_12396_16630)" stroke-width="0.390825"/>
<g filter="url(#filter3_f_12396_16630)">
<path d="M46.0984 122.236L47.5347 124.525C47.9798 121.91 47.0067 119.816 46.6242 119.235C46.3216 118.668 45.7601 117.871 45.0988 116.997C43.3437 114.253 39.644 111.806 33.8928 113.633C27.0526 115.985 24.7853 121.529 24.5421 123.977L45.5137 121.968L46.0984 122.236Z" fill="url(#paint13_linear_12396_16630)" fill-opacity="0.3"/>
</g>
</g>
<g filter="url(#filter4_d_12396_16630)">
<path d="M45.8817 174.944C48.6609 178.786 46.9081 184.615 42.011 188.158C37.1272 191.69 31.1971 191.374 28.4104 187.522C25.609 183.649 26.9683 177.449 31.8278 173.934C36.6874 170.418 43.0805 171.072 45.8817 174.944Z" stroke="url(#paint14_linear_12396_16630)" stroke-width="0.879357"/>
<path d="M45.0657 172.949C49.1207 177.754 48.0733 183.565 42.4324 188.143C36.6242 192.425 30.3237 191.392 27.012 187.18C23.7004 182.968 24.915 175.966 30.058 172.245C35.201 168.525 42.0147 168.731 45.0657 172.949Z" fill="url(#paint15_linear_12396_16630)"/>
<path d="M44.4731 172.837C45.8663 174.763 46.0968 177.186 45.3438 179.604C44.5898 182.026 42.8523 184.423 40.351 186.232C35.3203 189.872 29.2853 189.619 26.5041 185.775C23.7087 181.91 25.1634 175.629 30.1697 172.007C35.1762 168.385 41.6778 168.973 44.4731 172.837Z" stroke="url(#paint16_linear_12396_16630)" stroke-width="0.879357"/>
<path d="M43.35 172.843C45.654 176.028 44.3601 181.51 39.5369 184.999C34.7137 188.488 29.1021 188.001 26.7981 184.816C24.4941 181.631 25.788 176.149 30.6112 172.66C35.4344 169.171 41.046 169.658 43.35 172.843Z" fill="#FFD93B" stroke="url(#paint17_linear_12396_16630)" stroke-width="2.44266"/>
<path d="M42.1691 173.701C43.1609 175.072 43.2915 176.891 42.6684 178.743C42.0455 180.594 40.6728 182.461 38.691 183.894C36.7092 185.328 34.5066 186.048 32.5534 186.06C30.5997 186.072 28.9127 185.379 27.9209 184.008C26.929 182.637 26.7985 180.817 27.4216 178.966C28.0445 177.115 29.4171 175.248 31.3989 173.814C33.3808 172.38 35.5833 171.661 37.5366 171.649C39.4902 171.636 41.1773 172.33 42.1691 173.701Z" stroke="url(#paint18_linear_12396_16630)" stroke-width="0.390825"/>
<g filter="url(#filter5_f_12396_16630)">
<path d="M46.0984 178.236L47.5347 180.525C47.9798 177.91 47.0067 175.816 46.6242 175.235C46.3216 174.668 45.7601 173.871 45.0988 172.997C43.3437 170.253 39.644 167.806 33.8928 169.633C27.0526 171.985 24.7853 177.529 24.5421 179.977L45.5137 177.968L46.0984 178.236Z" fill="url(#paint19_linear_12396_16630)" fill-opacity="0.3"/>
</g>
</g>
<line x1="24" y1="95.25" x2="528" y2="95.25" stroke="#14162E" stroke-width="1.5"/>
<path fill-rule="evenodd" clip-rule="evenodd" d="M66 117.982C62.6863 117.982 60 120.669 60 123.982C60 127.296 62.6863 129.982 66 129.982H124C127.314 129.982 130 127.296 130 123.982C130 120.669 127.314 117.982 124 117.982H66ZM148 117.982C144.686 117.982 142 120.669 142 123.982C142 127.296 144.686 129.982 148 129.982H160C163.314 129.982 166 127.296 166 123.982C166 120.669 163.314 117.982 160 117.982H148ZM277 123.982C277 120.669 279.686 117.982 283 117.982H341C344.314 117.982 347 120.669 347 123.982C347 127.296 344.314 129.982 341 129.982H283C279.686 129.982 277 127.296 277 123.982ZM464 117.982C460.686 117.982 458 120.669 458 123.982C458 127.296 460.686 129.982 464 129.982H522C525.314 129.982 528 127.296 528 123.982C528 120.669 525.314 117.982 522 117.982H464Z" fill="url(#paint20_linear_12396_16630)" fill-opacity="0.1"/>
<line x1="24" y1="151.25" x2="528" y2="151.25" stroke="#14162E" stroke-width="1.5"/>
<path fill-rule="evenodd" clip-rule="evenodd" d="M66 173.982C62.6863 173.982 60 176.669 60 179.982C60 183.296 62.6863 185.982 66 185.982H124C127.314 185.982 130 183.296 130 179.982C130 176.669 127.314 173.982 124 173.982H66ZM148 173.982C144.686 173.982 142 176.669 142 179.982C142 183.296 144.686 185.982 148 185.982H160C163.314 185.982 166 183.296 166 179.982C166 176.669 163.314 173.982 160 173.982H148ZM277 179.982C277 176.669 279.686 173.982 283 173.982H341C344.314 173.982 347 176.669 347 179.982C347 183.296 344.314 185.982 341 185.982H283C279.686 185.982 277 183.296 277 179.982ZM464 173.982C460.686 173.982 458 176.669 458 179.982C458 183.296 460.686 185.982 464 185.982H522C525.314 185.982 528 183.296 528 179.982C528 176.669 525.314 173.982 522 173.982H464Z" fill="url(#paint21_linear_12396_16630)" fill-opacity="0.1"/>
<defs>
<filter id="filter0_d_12396_16630" x="6" y="38" width="60" height="60" filterUnits="userSpaceOnUse" color-interpolation-filters="sRGB">
<feFlood flood-opacity="0" result="BackgroundImageFix"/>
<feColorMatrix in="SourceAlpha" type="matrix" values="0 0 0 0 0 0 0 0 0 0 0 0 0 0 0 0 0 0 127 0" result="hardAlpha"/>
<feOffset/>
<feGaussianBlur stdDeviation="9"/>
<feComposite in2="hardAlpha" operator="out"/>
<feColorMatrix type="matrix" values="0 0 0 0 0.87451 0 0 0 0 0.639216 0 0 0 0 0.172549 0 0 0 0.48 0"/>
<feBlend mode="normal" in2="BackgroundImageFix" result="effect1_dropShadow_12396_16630"/>
<feBlend mode="normal" in="SourceGraphic" in2="effect1_dropShadow_12396_16630" result="shape"/>
</filter>
<filter id="filter1_f_12396_16630" x="24.1512" y="56.6102" width="23.8885" height="12.3061" filterUnits="userSpaceOnUse" color-interpolation-filters="sRGB">
<feFlood flood-opacity="0" result="BackgroundImageFix"/>
<feBlend mode="normal" in="SourceGraphic" in2="BackgroundImageFix" result="shape"/>
<feGaussianBlur stdDeviation="0.195413" result="effect1_foregroundBlur_12396_16630"/>
</filter>
<filter id="filter2_d_12396_16630" x="6" y="94" width="60" height="60" filterUnits="userSpaceOnUse" color-interpolation-filters="sRGB">
<feFlood flood-opacity="0" result="BackgroundImageFix"/>
<feColorMatrix in="SourceAlpha" type="matrix" values="0 0 0 0 0 0 0 0 0 0 0 0 0 0 0 0 0 0 127 0" result="hardAlpha"/>
<feOffset/>
<feGaussianBlur stdDeviation="9"/>
<feComposite in2="hardAlpha" operator="out"/>
<feColorMatrix type="matrix" values="0 0 0 0 0.87451 0 0 0 0 0.639216 0 0 0 0 0.172549 0 0 0 0.48 0"/>
<feBlend mode="normal" in2="BackgroundImageFix" result="effect1_dropShadow_12396_16630"/>
<feBlend mode="normal" in="SourceGraphic" in2="effect1_dropShadow_12396_16630" result="shape"/>
</filter>
<filter id="filter3_f_12396_16630" x="24.1512" y="112.61" width="23.8885" height="12.3061" filterUnits="userSpaceOnUse" color-interpolation-filters="sRGB">
<feFlood flood-opacity="0" result="BackgroundImageFix"/>
<feBlend mode="normal" in="SourceGraphic" in2="BackgroundImageFix" result="shape"/>
<feGaussianBlur stdDeviation="0.195413" result="effect1_foregroundBlur_12396_16630"/>
</filter>
<filter id="filter4_d_12396_16630" x="6" y="150" width="60" height="60" filterUnits="userSpaceOnUse" color-interpolation-filters="sRGB">
<feFlood flood-opacity="0" result="BackgroundImageFix"/>
<feColorMatrix in="SourceAlpha" type="matrix" values="0 0 0 0 0 0 0 0 0 0 0 0 0 0 0 0 0 0 127 0" result="hardAlpha"/>
<feOffset/>
<feGaussianBlur stdDeviation="9"/>
<feComposite in2="hardAlpha" operator="out"/>
<feColorMatrix type="matrix" values="0 0 0 0 0.87451 0 0 0 0 0.639216 0 0 0 0 0.172549 0 0 0 0.48 0"/>
<feBlend mode="normal" in2="BackgroundImageFix" result="effect1_dropShadow_12396_16630"/>
<feBlend mode="normal" in="SourceGraphic" in2="effect1_dropShadow_12396_16630" result="shape"/>
</filter>
<filter id="filter5_f_12396_16630" x="24.1512" y="168.61" width="23.8885" height="12.3061" filterUnits="userSpaceOnUse" color-interpolation-filters="sRGB">
<feFlood flood-opacity="0" result="BackgroundImageFix"/>
<feBlend mode="normal" in="SourceGraphic" in2="BackgroundImageFix" result="shape"/>
<feGaussianBlur stdDeviation="0.195413" result="effect1_foregroundBlur_12396_16630"/>
</filter>
<linearGradient id="paint0_linear_12396_16630" x1="24" y1="20" x2="508" y2="20" gradientUnits="userSpaceOnUse">
<stop stop-color="white"/>
<stop offset="1" stop-color="white" stop-opacity="0"/>
</linearGradient>
<linearGradient id="paint1_linear_12396_16630" x1="60" y1="67.9824" x2="528" y2="67.9824" gradientUnits="userSpaceOnUse">
<stop stop-color="white"/>
<stop offset="1" stop-color="white" stop-opacity="0"/>
</linearGradient>
<linearGradient id="paint2_linear_12396_16630" x1="45.6719" y1="61.8935" x2="30.6505" y2="78.7798" gradientUnits="userSpaceOnUse">
<stop stop-color="#FDF8CE"/>
<stop offset="0.0550575" stop-color="#F2E158"/>
<stop offset="0.170676" stop-color="#FCF5AF"/>
<stop offset="0.309086" stop-color="#ECD42F"/>
<stop offset="0.491314" stop-color="#E9B00C"/>
<stop offset="0.704021" stop-color="#ECB600"/>
<stop offset="0.78935" stop-color="#E8CF29"/>
<stop offset="0.843399" stop-color="#EBD431"/>
<stop offset="0.909367" stop-color="#E2C317"/>
<stop offset="1" stop-color="#E9D14F"/>
</linearGradient>
<linearGradient id="paint3_linear_12396_16630" x1="45.4136" y1="62.0035" x2="28.8073" y2="78.7731" gradientUnits="userSpaceOnUse">
<stop stop-color="#EEBB5C"/>
<stop offset="0.0550575" stop-color="#FDEE48"/>
<stop offset="0.170676" stop-color="#E8BB06"/>
<stop offset="0.309086" stop-color="#D57B01"/>
<stop offset="0.491314" stop-color="#C86101"/>
<stop offset="0.660555" stop-color="#D88C2D"/>
<stop offset="0.771761" stop-color="#E8BE29"/>
<stop offset="0.815114" stop-color="#E8BE29"/>
<stop offset="0.881945" stop-color="#E8AE0E"/>
<stop offset="0.930202" stop-color="#D98317"/>
<stop offset="1" stop-color="#EBAE4E"/>
</linearGradient>
<linearGradient id="paint4_linear_12396_16630" x1="44.2635" y1="59.7862" x2="28.9505" y2="77.2018" gradientUnits="userSpaceOnUse">
<stop stop-color="#FDF8CE"/>
<stop offset="0.0550575" stop-color="#F2E158"/>
<stop offset="0.170676" stop-color="#FCF5AF"/>
<stop offset="0.309086" stop-color="#ECD42F"/>
<stop offset="0.491314" stop-color="#E9B00C"/>
<stop offset="0.704021" stop-color="#ECB600"/>
<stop offset="0.78935" stop-color="#E8CF29"/>
<stop offset="0.843399" stop-color="#EBD431"/>
<stop offset="0.909367" stop-color="#E2C317"/>
<stop offset="1" stop-color="#E9D14F"/>
</linearGradient>
<linearGradient id="paint5_linear_12396_16630" x1="39.3879" y1="56.8857" x2="31.9398" y2="76.7995" gradientUnits="userSpaceOnUse">
<stop stop-color="#FFDC5E"/>
<stop offset="0.417119" stop-color="#FFED97"/>
<stop offset="1" stop-color="#FFF27B"/>
</linearGradient>
<linearGradient id="paint6_linear_12396_16630" x1="31.3828" y1="61.2549" x2="39.401" y2="71.8756" gradientUnits="userSpaceOnUse">
<stop stop-color="#E4991A"/>
<stop offset="0.474971" stop-color="#EAAA2E" stop-opacity="0"/>
<stop offset="1" stop-color="#FFF27B" stop-opacity="0"/>
</linearGradient>
<linearGradient id="paint7_linear_12396_16630" x1="32.1842" y1="67.0753" x2="31.8778" y2="56.147" gradientUnits="userSpaceOnUse">
<stop stop-color="white"/>
<stop offset="0.105858" stop-color="white"/>
<stop offset="0.21696" stop-color="white" stop-opacity="0.961194"/>
<stop offset="1" stop-color="white" stop-opacity="0"/>
</linearGradient>
<linearGradient id="paint8_linear_12396_16630" x1="45.6719" y1="117.893" x2="30.6505" y2="134.78" gradientUnits="userSpaceOnUse">
<stop stop-color="#FDF8CE"/>
<stop offset="0.0550575" stop-color="#F2E158"/>
<stop offset="0.170676" stop-color="#FCF5AF"/>
<stop offset="0.309086" stop-color="#ECD42F"/>
<stop offset="0.491314" stop-color="#E9B00C"/>
<stop offset="0.704021" stop-color="#ECB600"/>
<stop offset="0.78935" stop-color="#E8CF29"/>
<stop offset="0.843399" stop-color="#EBD431"/>
<stop offset="0.909367" stop-color="#E2C317"/>
<stop offset="1" stop-color="#E9D14F"/>
</linearGradient>
<linearGradient id="paint9_linear_12396_16630" x1="45.4136" y1="118.004" x2="28.8073" y2="134.773" gradientUnits="userSpaceOnUse">
<stop stop-color="#EEBB5C"/>
<stop offset="0.0550575" stop-color="#FDEE48"/>
<stop offset="0.170676" stop-color="#E8BB06"/>
<stop offset="0.309086" stop-color="#D57B01"/>
<stop offset="0.491314" stop-color="#C86101"/>
<stop offset="0.660555" stop-color="#D88C2D"/>
<stop offset="0.771761" stop-color="#E8BE29"/>
<stop offset="0.815114" stop-color="#E8BE29"/>
<stop offset="0.881945" stop-color="#E8AE0E"/>
<stop offset="0.930202" stop-color="#D98317"/>
<stop offset="1" stop-color="#EBAE4E"/>
</linearGradient>
<linearGradient id="paint10_linear_12396_16630" x1="44.2635" y1="115.786" x2="28.9505" y2="133.202" gradientUnits="userSpaceOnUse">
<stop stop-color="#FDF8CE"/>
<stop offset="0.0550575" stop-color="#F2E158"/>
<stop offset="0.170676" stop-color="#FCF5AF"/>
<stop offset="0.309086" stop-color="#ECD42F"/>
<stop offset="0.491314" stop-color="#E9B00C"/>
<stop offset="0.704021" stop-color="#ECB600"/>
<stop offset="0.78935" stop-color="#E8CF29"/>
<stop offset="0.843399" stop-color="#EBD431"/>
<stop offset="0.909367" stop-color="#E2C317"/>
<stop offset="1" stop-color="#E9D14F"/>
</linearGradient>
<linearGradient id="paint11_linear_12396_16630" x1="39.3879" y1="112.886" x2="31.9398" y2="132.799" gradientUnits="userSpaceOnUse">
<stop stop-color="#FFDC5E"/>
<stop offset="0.417119" stop-color="#FFED97"/>
<stop offset="1" stop-color="#FFF27B"/>
</linearGradient>
<linearGradient id="paint12_linear_12396_16630" x1="31.3828" y1="117.255" x2="39.401" y2="127.876" gradientUnits="userSpaceOnUse">
<stop stop-color="#E4991A"/>
<stop offset="0.474971" stop-color="#EAAA2E" stop-opacity="0"/>
<stop offset="1" stop-color="#FFF27B" stop-opacity="0"/>
</linearGradient>
<linearGradient id="paint13_linear_12396_16630" x1="32.1842" y1="123.075" x2="31.8778" y2="112.147" gradientUnits="userSpaceOnUse">
<stop stop-color="white"/>
<stop offset="0.105858" stop-color="white"/>
<stop offset="0.21696" stop-color="white" stop-opacity="0.961194"/>
<stop offset="1" stop-color="white" stop-opacity="0"/>
</linearGradient>
<linearGradient id="paint14_linear_12396_16630" x1="45.6719" y1="173.893" x2="30.6505" y2="190.78" gradientUnits="userSpaceOnUse">
<stop stop-color="#FDF8CE"/>
<stop offset="0.0550575" stop-color="#F2E158"/>
<stop offset="0.170676" stop-color="#FCF5AF"/>
<stop offset="0.309086" stop-color="#ECD42F"/>
<stop offset="0.491314" stop-color="#E9B00C"/>
<stop offset="0.704021" stop-color="#ECB600"/>
<stop offset="0.78935" stop-color="#E8CF29"/>
<stop offset="0.843399" stop-color="#EBD431"/>
<stop offset="0.909367" stop-color="#E2C317"/>
<stop offset="1" stop-color="#E9D14F"/>
</linearGradient>
<linearGradient id="paint15_linear_12396_16630" x1="45.4136" y1="174.004" x2="28.8073" y2="190.773" gradientUnits="userSpaceOnUse">
<stop stop-color="#EEBB5C"/>
<stop offset="0.0550575" stop-color="#FDEE48"/>
<stop offset="0.170676" stop-color="#E8BB06"/>
<stop offset="0.309086" stop-color="#D57B01"/>
<stop offset="0.491314" stop-color="#C86101"/>
<stop offset="0.660555" stop-color="#D88C2D"/>
<stop offset="0.771761" stop-color="#E8BE29"/>
<stop offset="0.815114" stop-color="#E8BE29"/>
<stop offset="0.881945" stop-color="#E8AE0E"/>
<stop offset="0.930202" stop-color="#D98317"/>
<stop offset="1" stop-color="#EBAE4E"/>
</linearGradient>
<linearGradient id="paint16_linear_12396_16630" x1="44.2635" y1="171.786" x2="28.9505" y2="189.202" gradientUnits="userSpaceOnUse">
<stop stop-color="#FDF8CE"/>
<stop offset="0.0550575" stop-color="#F2E158"/>
<stop offset="0.170676" stop-color="#FCF5AF"/>
<stop offset="0.309086" stop-color="#ECD42F"/>
<stop offset="0.491314" stop-color="#E9B00C"/>
<stop offset="0.704021" stop-color="#ECB600"/>
<stop offset="0.78935" stop-color="#E8CF29"/>
<stop offset="0.843399" stop-color="#EBD431"/>
<stop offset="0.909367" stop-color="#E2C317"/>
<stop offset="1" stop-color="#E9D14F"/>
</linearGradient>
<linearGradient id="paint17_linear_12396_16630" x1="39.3879" y1="168.886" x2="31.9398" y2="188.799" gradientUnits="userSpaceOnUse">
<stop stop-color="#FFDC5E"/>
<stop offset="0.417119" stop-color="#FFED97"/>
<stop offset="1" stop-color="#FFF27B"/>
</linearGradient>
<linearGradient id="paint18_linear_12396_16630" x1="31.3828" y1="173.255" x2="39.401" y2="183.876" gradientUnits="userSpaceOnUse">
<stop stop-color="#E4991A"/>
<stop offset="0.474971" stop-color="#EAAA2E" stop-opacity="0"/>
<stop offset="1" stop-color="#FFF27B" stop-opacity="0"/>
</linearGradient>
<linearGradient id="paint19_linear_12396_16630" x1="32.1842" y1="179.075" x2="31.8778" y2="168.147" gradientUnits="userSpaceOnUse">
<stop stop-color="white"/>
<stop offset="0.105858" stop-color="white"/>
<stop offset="0.21696" stop-color="white" stop-opacity="0.961194"/>
<stop offset="1" stop-color="white" stop-opacity="0"/>
</linearGradient>
<linearGradient id="paint20_linear_12396_16630" x1="60" y1="123.982" x2="528" y2="123.982" gradientUnits="userSpaceOnUse">
<stop stop-color="white"/>
<stop offset="1" stop-color="white" stop-opacity="0"/>
</linearGradient>
<linearGradient id="paint21_linear_12396_16630" x1="60" y1="179.982" x2="528" y2="179.982" gradientUnits="userSpaceOnUse">
<stop stop-color="white"/>
<stop offset="1" stop-color="white" stop-opacity="0"/>
</linearGradient>
</defs>
</svg>
