<svg width="16" height="24" viewBox="0 0 16 24" fill="none" xmlns="http://www.w3.org/2000/svg">
<g id="ETH">
<g id="eth">
<path id="Shape" d="M8.03677 0.129218V0.141041C8.04859 0.200154 8.04859 0.27109 8.04859 0.342026V8.86616C8.03677 8.91346 8.0013 8.92528 7.96583 8.94892C7.71756 9.06715 7.4811 9.17355 7.23283 9.27996C6.88997 9.43365 6.53529 9.59917 6.19243 9.75286L4.95105 10.3204C4.6082 10.474 4.26534 10.6277 3.93431 10.7814C3.53234 10.9706 3.11854 11.1479 2.71657 11.3371C2.37371 11.4908 2.03086 11.6563 1.67618 11.81C1.39243 11.9401 1.10869 12.0583 0.836769 12.1883C0.813123 12.2002 0.789478 12.212 0.765833 12.212C0.75401 12.212 0.75401 12.212 0.742188 12.2002L1.0614 11.6681C1.67618 10.6514 2.27913 9.64646 2.89391 8.62971C3.54416 7.54203 4.20623 6.45434 4.85647 5.36666C5.45943 4.36173 6.07421 3.3568 6.67716 2.35188C7.1146 1.61887 7.56386 0.885868 8.0013 0.152863C8.01312 0.129218 8.02495 0.117395 8.02495 0.09375H8.03677C8.02495 0.105573 8.03677 0.117395 8.03677 0.129218Z" fill="#8A92B2"/>
<path id="Shape_2" d="M15.2945 12.1997L15.3063 12.2115L13.5684 13.2401L8.1063 16.4677C8.08265 16.4795 8.05901 16.4913 8.04719 16.5032C8.01172 16.5032 8.01172 16.4677 8.01172 16.4559V16.3495V9.04307C8.01172 9.0076 8.01172 8.96031 8.02354 8.92484C8.03536 8.87755 8.07083 8.88938 8.1063 8.9012C8.25999 8.97214 8.42551 9.04307 8.57921 9.11401C9.04029 9.32682 9.50137 9.53962 9.96246 9.74061C10.3644 9.91795 10.7546 10.1071 11.1565 10.2845C11.5585 10.4618 11.9605 10.651 12.3625 10.8283C12.7053 10.982 13.06 11.1475 13.4029 11.3012C13.7457 11.4549 14.1004 11.6204 14.4432 11.7741C14.7152 11.8923 14.9871 12.0224 15.259 12.1406C15.259 12.1761 15.2708 12.1879 15.2945 12.1997Z" fill="#454A75"/>
<path id="Shape_3" d="M8.03677 23.8438C8.03677 23.8556 8.02495 23.8674 8.02495 23.8793H8.01312C8.01312 23.8556 7.98948 23.8438 7.97766 23.8201C7.24465 22.7916 6.51165 21.7512 5.77864 20.7226C5.03381 19.6704 4.27716 18.6064 3.53234 17.5541C2.81115 16.5374 2.07815 15.5088 1.35697 14.4921C1.1678 14.2201 0.978641 13.96 0.789478 13.6881C0.777655 13.6645 0.765833 13.6527 0.742188 13.6172C0.777655 13.6172 0.801301 13.6408 0.813123 13.6527C1.84169 14.2556 2.85844 14.8586 3.88702 15.4615C5.06928 16.1591 6.23972 16.8566 7.42199 17.5541L8.02495 17.9088C8.04859 17.9325 8.04859 17.9561 8.04859 17.9797V23.6783C8.04859 23.7374 8.04859 23.7965 8.03677 23.8438Z" fill="#8A92B2"/>
<path id="Path" d="M0.730469 12.2246V12.2128C1.10879 12.0473 1.4753 11.8699 1.85362 11.7044C2.33835 11.4798 2.82308 11.267 3.30781 11.0423C3.67431 10.8768 4.05264 10.6995 4.41914 10.534C4.96298 10.2857 5.495 10.0492 6.03884 9.80097C6.40535 9.63545 6.77185 9.46994 7.15017 9.2926C7.41027 9.17437 7.68219 9.05614 7.94229 8.93792C7.96594 8.92609 8.0014 8.91427 8.01323 8.89062C8.02505 8.89062 8.02505 8.90245 8.01323 8.91427V16.4217C8.01323 16.4571 8.0014 16.4926 8.02505 16.5162C8.0014 16.5517 7.97776 16.5162 7.96594 16.5044C7.85953 16.4453 7.75313 16.3862 7.64672 16.3153C5.36495 14.9675 3.07136 13.6079 0.789582 12.2601C0.777759 12.2483 0.754114 12.2364 0.730469 12.2246Z" fill="#62688F"/>
<path id="Path_2" d="M15.2707 13.6172H15.2826C15.2826 13.6408 15.2589 13.6645 15.2471 13.6881C13.0717 16.7502 10.8963 19.8241 8.72097 22.8862C8.49634 23.2054 8.25989 23.5246 8.03526 23.8438C8.02344 23.832 8.02344 23.8201 8.02344 23.8083V23.7374V18.0034V17.897C8.51999 17.6014 9.00472 17.3177 9.50127 17.0221C11.4165 15.8871 13.3318 14.764 15.2353 13.629C15.2471 13.6408 15.2589 13.629 15.2707 13.6172Z" fill="#62688F"/>
<path id="Shape_4" d="M8.02365 8.91304V8.88939V8.81846V0.235206C8.02365 0.199738 8.01182 0.176093 8.03547 0.140625C10.4355 4.12486 12.8355 8.09728 15.2236 12.0815C15.2473 12.117 15.2828 12.1643 15.2946 12.2116C15.1291 12.1524 14.9754 12.0697 14.8217 11.9988C14.6325 11.916 14.4315 11.8214 14.2424 11.7387C14.1241 11.6795 13.9941 11.6323 13.8759 11.5731C13.6749 11.4786 13.4739 11.3958 13.2729 11.3012C13.1547 11.2539 13.0365 11.1948 12.9182 11.1357L12.1379 10.781C12.0079 10.7219 11.8778 10.6628 11.736 10.6037L11.1685 10.3554C11.0502 10.3081 10.932 10.249 10.8138 10.1899L10.0335 9.83521C9.90345 9.77609 9.7734 9.71698 9.63153 9.65787L9.06404 9.40959C8.93399 9.35048 8.81576 9.29136 8.68571 9.23225C8.46108 9.12585 8.23645 9.01944 8 8.92486C8.03547 8.91304 8.02365 8.91304 8.02365 8.91304Z" fill="#62688F"/>
</g>
</g>
</svg>
