<svg width="144" height="144" viewBox="0 0 144 144" fill="none" xmlns="http://www.w3.org/2000/svg">
<path d="M96.7244 29.516L100.78 28.2937C101.073 28.2084 101.073 27.7821 100.78 27.6968L96.7244 26.4745C96.6202 26.4461 96.5444 26.3703 96.516 26.2661L95.2937 22.2203C95.2084 21.9266 94.7821 21.9266 94.6968 22.2203L93.4745 26.2661C93.4461 26.3703 93.3703 26.4461 93.2661 26.4745L89.2203 27.6968C88.9266 27.7821 88.9266 28.2084 89.2203 28.2937L93.2756 29.516C93.3798 29.5444 93.4556 29.6202 93.484 29.7244L94.7063 33.7797C94.7916 34.0734 95.2179 34.0734 95.3032 33.7797L96.5255 29.7244C96.5444 29.6202 96.6202 29.5444 96.7244 29.516Z" fill="#FF409D"/>
<path d="M53.1496 22.0107L55.8531 21.1958C56.049 21.139 56.049 20.8547 55.8531 20.7979L53.1496 19.983C53.0801 19.9641 53.0296 19.9135 53.0107 19.8441L52.1958 17.1469C52.139 16.951 51.8547 16.951 51.7979 17.1469L50.983 19.8441C50.9641 19.9135 50.9135 19.9641 50.8441 19.983L48.1469 20.7979C47.951 20.8547 47.951 21.139 48.1469 21.1958L50.8504 22.0107C50.9199 22.0296 50.9704 22.0801 50.9893 22.1496L51.8042 24.8531C51.861 25.049 52.1453 25.049 52.2021 24.8531L53.017 22.1496C53.0296 22.0801 53.0801 22.0296 53.1496 22.0107Z" fill="#565CE4"/>
<path d="M112 40C116.418 40 120 43.5817 120 48V125.5C107.73 137.727 90.7416 144 72 144C53.3933 144 36.4045 137.593 24 125.5V48C24 43.5817 27.5817 40 32 40H112Z" fill="#14162E"/>
<path d="M79.1346 55.33L57.0144 77.9086C55.2115 79.7489 55.2115 82.7325 57.0144 84.5728C58.8173 86.4131 61.7404 86.4131 63.5433 84.5728L85.6634 61.9942C87.4663 60.1539 87.4663 57.1702 85.6634 55.33C83.8605 53.4897 80.9375 53.4897 79.1346 55.33Z" fill="#FF5757"/>
<path d="M56.8002 62.0077L79.1508 84.3583C80.9725 86.18 83.956 86.2106 85.8146 84.4267C87.6733 82.6427 87.7033 79.7198 85.8816 77.8982L63.531 55.5476C61.7093 53.7259 58.7258 53.6953 56.8672 55.4792C55.0085 57.2631 54.9785 60.1861 56.8002 62.0077Z" fill="#FF5757"/>
<path d="M93 100H51C49.3431 100 48 101.343 48 103C48 104.657 49.3431 106 51 106H93C94.6569 106 96 104.657 96 103C96 101.343 94.6569 100 93 100Z" fill="#626583"/>
<path d="M93 111H51C49.3431 111 48 112.343 48 114C48 115.657 49.3431 117 51 117H93C94.6569 117 96 115.657 96 114C96 112.343 94.6569 111 93 111Z" fill="#626583"/>
<path d="M81 122H63C61.3431 122 60 123.343 60 125C60 126.657 61.3431 128 63 128H81C82.6569 128 84 126.657 84 125C84 123.343 82.6569 122 81 122Z" fill="#626583"/>
</svg>
