<svg xmlns="http://www.w3.org/2000/svg" width="61" height="59" viewBox="0 0 61 59" fill="none">
  <g filter="url(#filter0_d_6182_10126)">
    <path d="M40.3817 23.944C43.1609 27.786 41.4081 33.615 36.511 37.1575C31.6272 40.6904 25.6971 40.3742 22.9104 36.5219C20.109 32.6494 21.4683 26.449 26.3278 22.9337C31.1874 19.4183 37.5805 20.0717 40.3817 23.944Z" stroke="url(#paint0_linear_6182_10126)" stroke-width="0.879357"/>
    <path d="M39.5657 21.9487C43.6207 26.7541 42.5733 32.5646 36.9324 37.1426C31.1242 41.4253 24.8237 40.3922 21.512 36.1799C18.2004 31.9677 19.415 24.9658 24.558 21.2454C29.701 17.525 36.5147 17.7311 39.5657 21.9487Z" fill="url(#paint1_linear_6182_10126)"/>
    <path d="M38.9731 21.8369C40.3663 23.7627 40.5968 26.1856 39.8438 28.6042C39.0898 31.0261 37.3523 33.4229 34.851 35.2323C29.8203 38.8715 23.7853 38.6194 21.0041 34.7748C18.2087 30.9105 19.6634 24.6286 24.6697 21.0071C29.6762 17.3855 36.1778 17.9727 38.9731 21.8369Z" stroke="url(#paint2_linear_6182_10126)" stroke-width="0.879357"/>
    <path d="M37.85 21.8426C40.154 25.0276 38.8601 30.5096 34.0369 33.9987C29.2137 37.4878 23.6021 37.0011 21.2981 33.8161C18.9941 30.6311 20.288 25.1491 25.1112 21.66C29.9344 18.1709 35.546 18.6576 37.85 21.8426Z" fill="#FFD93B" stroke="url(#paint3_linear_6182_10126)" stroke-width="2.44266"/>
    <path d="M36.6691 22.7008C37.6609 24.0718 37.7915 25.8911 37.1684 27.7428C36.5455 29.5941 35.1728 31.4609 33.191 32.8945C31.2092 34.3281 29.0066 35.0476 27.0534 35.0599C25.0997 35.0722 23.4127 34.3789 22.4209 33.0078C21.429 31.6367 21.2985 29.8175 21.9216 27.9658C22.5445 26.1145 23.9171 24.2477 25.8989 22.8141C27.8808 21.3805 30.0833 20.661 32.0366 20.6487C33.9902 20.6364 35.6773 21.3297 36.6691 22.7008Z" stroke="url(#paint4_linear_6182_10126)" stroke-width="0.390825"/>
    <g filter="url(#filter1_f_6182_10126)">
      <path d="M40.5983 27.236L42.0347 29.525C42.4797 26.9096 41.5066 24.8161 41.1242 24.2354C40.8215 23.6681 40.26 22.8712 39.5987 21.9968C37.8436 19.2529 34.1439 16.8056 28.3927 18.6331C21.5525 20.9855 19.2852 26.5289 19.042 28.9766L40.0136 26.968L40.5983 27.236Z" fill="url(#paint5_linear_6182_10126)" fill-opacity="0.3"/>
    </g>
  </g>
  <defs>
    <filter id="filter0_d_6182_10126" x="0.5" y="-1" width="60" height="60" filterUnits="userSpaceOnUse" color-interpolation-filters="sRGB">
      <feFlood flood-opacity="0" result="BackgroundImageFix"/>
      <feColorMatrix in="SourceAlpha" type="matrix" values="0 0 0 0 0 0 0 0 0 0 0 0 0 0 0 0 0 0 127 0" result="hardAlpha"/>
      <feOffset/>
      <feGaussianBlur stdDeviation="9"/>
      <feComposite in2="hardAlpha" operator="out"/>
      <feColorMatrix type="matrix" values="0 0 0 0 0.87451 0 0 0 0 0.639216 0 0 0 0 0.172549 0 0 0 0.48 0"/>
      <feBlend mode="normal" in2="BackgroundImageFix" result="effect1_dropShadow_6182_10126"/>
      <feBlend mode="normal" in="SourceGraphic" in2="effect1_dropShadow_6182_10126" result="shape"/>
    </filter>
    <filter id="filter1_f_6182_10126" x="18.6512" y="17.6102" width="23.8881" height="12.3056" filterUnits="userSpaceOnUse" color-interpolation-filters="sRGB">
      <feFlood flood-opacity="0" result="BackgroundImageFix"/>
      <feBlend mode="normal" in="SourceGraphic" in2="BackgroundImageFix" result="shape"/>
      <feGaussianBlur stdDeviation="0.195413" result="effect1_foregroundBlur_6182_10126"/>
    </filter>
    <linearGradient id="paint0_linear_6182_10126" x1="40.1719" y1="22.8935" x2="25.1505" y2="39.7798" gradientUnits="userSpaceOnUse">
      <stop stop-color="#FDF8CE"/>
      <stop offset="0.0550575" stop-color="#F2E158"/>
      <stop offset="0.170676" stop-color="#FCF5AF"/>
      <stop offset="0.309086" stop-color="#ECD42F"/>
      <stop offset="0.491314" stop-color="#E9B00C"/>
      <stop offset="0.704021" stop-color="#ECB600"/>
      <stop offset="0.78935" stop-color="#E8CF29"/>
      <stop offset="0.843399" stop-color="#EBD431"/>
      <stop offset="0.909367" stop-color="#E2C317"/>
      <stop offset="1" stop-color="#E9D14F"/>
    </linearGradient>
    <linearGradient id="paint1_linear_6182_10126" x1="39.9136" y1="23.0035" x2="23.3073" y2="39.7731" gradientUnits="userSpaceOnUse">
      <stop stop-color="#EEBB5C"/>
      <stop offset="0.0550575" stop-color="#FDEE48"/>
      <stop offset="0.170676" stop-color="#E8BB06"/>
      <stop offset="0.309086" stop-color="#D57B01"/>
      <stop offset="0.491314" stop-color="#C86101"/>
      <stop offset="0.660555" stop-color="#D88C2D"/>
      <stop offset="0.771761" stop-color="#E8BE29"/>
      <stop offset="0.815114" stop-color="#E8BE29"/>
      <stop offset="0.881945" stop-color="#E8AE0E"/>
      <stop offset="0.930202" stop-color="#D98317"/>
      <stop offset="1" stop-color="#EBAE4E"/>
    </linearGradient>
    <linearGradient id="paint2_linear_6182_10126" x1="38.7635" y1="20.7862" x2="23.4505" y2="38.2018" gradientUnits="userSpaceOnUse">
      <stop stop-color="#FDF8CE"/>
      <stop offset="0.0550575" stop-color="#F2E158"/>
      <stop offset="0.170676" stop-color="#FCF5AF"/>
      <stop offset="0.309086" stop-color="#ECD42F"/>
      <stop offset="0.491314" stop-color="#E9B00C"/>
      <stop offset="0.704021" stop-color="#ECB600"/>
      <stop offset="0.78935" stop-color="#E8CF29"/>
      <stop offset="0.843399" stop-color="#EBD431"/>
      <stop offset="0.909367" stop-color="#E2C317"/>
      <stop offset="1" stop-color="#E9D14F"/>
    </linearGradient>
    <linearGradient id="paint3_linear_6182_10126" x1="33.8879" y1="17.8857" x2="26.4398" y2="37.7995" gradientUnits="userSpaceOnUse">
      <stop stop-color="#FFDC5E"/>
      <stop offset="0.417119" stop-color="#FFED97"/>
      <stop offset="1" stop-color="#FFF27B"/>
    </linearGradient>
    <linearGradient id="paint4_linear_6182_10126" x1="25.8828" y1="22.2549" x2="33.901" y2="32.8756" gradientUnits="userSpaceOnUse">
      <stop stop-color="#E4991A"/>
      <stop offset="0.474971" stop-color="#EAAA2E" stop-opacity="0"/>
      <stop offset="1" stop-color="#FFF27B" stop-opacity="0"/>
    </linearGradient>
    <linearGradient id="paint5_linear_6182_10126" x1="26.6841" y1="28.0753" x2="26.3777" y2="17.147" gradientUnits="userSpaceOnUse">
      <stop stop-color="white"/>
      <stop offset="0.105858" stop-color="white"/>
      <stop offset="0.21696" stop-color="white" stop-opacity="0.961194"/>
      <stop offset="1" stop-color="white" stop-opacity="0"/>
    </linearGradient>
  </defs>
</svg>