<svg width="48" height="50" viewBox="0 0 48 50" fill="none" xmlns="http://www.w3.org/2000/svg">
<rect x="16" y="44" width="16" height="6" rx="3" fill="#626583"/>
<rect x="0.75" y="0.75" width="46.5" height="46.5" rx="11.25" fill="#090A23" stroke="#14162E" stroke-width="1.5"/>
<path d="M27.7381 30.0004L33.1741 17.9764L33.5701 18.5524H25.7761L26.4421 17.9224V20.9104H25.1641V17.4004H34.4161V18.3184L29.1421 30.0004H27.7381Z" fill="url(#paint0_radial_11021_14526)"/>
<path d="M18.7681 30.108C17.7961 30.108 16.9321 29.856 16.1761 29.352C15.4201 28.836 14.8261 28.104 14.3941 27.156C13.9621 26.196 13.7461 25.044 13.7461 23.7C13.7461 22.356 13.9621 21.21 14.3941 20.262C14.8261 19.302 15.4201 18.57 16.1761 18.066C16.9321 17.55 17.7961 17.292 18.7681 17.292C19.7401 17.292 20.6041 17.55 21.3601 18.066C22.1161 18.57 22.7101 19.302 23.1421 20.262C23.5861 21.21 23.8081 22.356 23.8081 23.7C23.8081 25.044 23.5861 26.196 23.1421 27.156C22.7101 28.104 22.1161 28.836 21.3601 29.352C20.6041 29.856 19.7401 30.108 18.7681 30.108ZM18.7681 28.92C19.5121 28.92 20.1601 28.722 20.7121 28.326C21.2641 27.918 21.6961 27.33 22.0081 26.562C22.3201 25.782 22.4761 24.828 22.4761 23.7C22.4761 22.572 22.3201 21.624 22.0081 20.856C21.6961 20.076 21.2641 19.488 20.7121 19.092C20.1601 18.684 19.5121 18.48 18.7681 18.48C18.0481 18.48 17.4061 18.684 16.8421 19.092C16.2781 19.488 15.8401 20.076 15.5281 20.856C15.2161 21.624 15.0601 22.572 15.0601 23.7C15.0601 24.828 15.2161 25.782 15.5281 26.562C15.8401 27.33 16.2781 27.918 16.8421 28.326C17.4061 28.722 18.0481 28.92 18.7681 28.92Z" fill="url(#paint1_radial_11021_14526)"/>
<defs>
<radialGradient id="paint0_radial_11021_14526" cx="0" cy="0" r="1" gradientUnits="userSpaceOnUse" gradientTransform="translate(29.7901 23.7004) rotate(90) scale(6.3 4.626)">
<stop stop-color="white"/>
<stop offset="1" stop-color="#CDDFF2"/>
</radialGradient>
<radialGradient id="paint1_radial_11021_14526" cx="0" cy="0" r="1" gradientUnits="userSpaceOnUse" gradientTransform="translate(18.7771 23.7) rotate(90) scale(6.408 5.031)">
<stop stop-color="white"/>
<stop offset="1" stop-color="#CDDFF2"/>
</radialGradient>
</defs>
</svg>
