<svg width="48" height="50" viewBox="0 0 48 50" fill="none" xmlns="http://www.w3.org/2000/svg">
<rect x="16" y="44" width="16" height="6" rx="3" fill="#626583"/>
<rect x="0.75" y="0.75" width="46.5" height="46.5" rx="11.25" fill="#090A23" stroke="#14162E" stroke-width="1.5"/>
<path d="M27.4201 30.1797C26.4241 30.1797 25.5241 29.9277 24.7201 29.4237C23.9281 28.9197 23.3041 28.1877 22.8481 27.2277C22.3921 26.2557 22.1641 25.0797 22.1641 23.6997C22.1641 22.3197 22.3921 21.1497 22.8481 20.1897C23.3041 19.2177 23.9281 18.4797 24.7201 17.9757C25.5241 17.4717 26.4241 17.2197 27.4201 17.2197C28.4281 17.2197 29.3281 17.4717 30.1201 17.9757C30.9121 18.4797 31.5361 19.2177 31.9921 20.1897C32.4601 21.1497 32.6941 22.3197 32.6941 23.6997C32.6941 25.0797 32.4601 26.2557 31.9921 27.2277C31.5361 28.1877 30.9121 28.9197 30.1201 29.4237C29.3281 29.9277 28.4281 30.1797 27.4201 30.1797ZM27.4201 28.1457C28.0081 28.1457 28.5181 27.9897 28.9501 27.6777C29.3821 27.3537 29.7181 26.8617 29.9581 26.2017C30.2101 25.5417 30.3361 24.7077 30.3361 23.6997C30.3361 22.6797 30.2101 21.8457 29.9581 21.1977C29.7181 20.5377 29.3821 20.0517 28.9501 19.7397C28.5181 19.4157 28.0081 19.2537 27.4201 19.2537C26.8561 19.2537 26.3521 19.4157 25.9081 19.7397C25.4761 20.0517 25.1341 20.5377 24.8821 21.1977C24.6421 21.8457 24.5221 22.6797 24.5221 23.6997C24.5221 24.7077 24.6421 25.5417 24.8821 26.2017C25.1341 26.8617 25.4761 27.3537 25.9081 27.6777C26.3521 27.9897 26.8561 28.1457 27.4201 28.1457Z" fill="url(#paint0_radial_11021_14538)"/>
<path d="M17.3281 29.9994V18.2994L18.3541 19.3614H14.6641V17.3994H19.6681V29.9994H17.3281Z" fill="url(#paint1_radial_11021_14538)"/>
<defs>
<radialGradient id="paint0_radial_11021_14538" cx="0" cy="0" r="1" gradientUnits="userSpaceOnUse" gradientTransform="translate(27.4291 23.6997) rotate(90) scale(6.48 5.265)">
<stop stop-color="white"/>
<stop offset="1" stop-color="#CDDFF2"/>
</radialGradient>
<radialGradient id="paint1_radial_11021_14538" cx="0" cy="0" r="1" gradientUnits="userSpaceOnUse" gradientTransform="translate(17.1661 23.6994) rotate(90) scale(6.3 2.502)">
<stop stop-color="white"/>
<stop offset="1" stop-color="#CDDFF2"/>
</radialGradient>
</defs>
</svg>
