<svg width="48" height="50" viewBox="0 0 48 50" fill="none" xmlns="http://www.w3.org/2000/svg">
<rect x="16" y="44" width="16" height="6" rx="3" fill="#626583"/>
<rect x="0.75" y="0.75" width="46.5" height="46.5" rx="11.25" fill="#090A23" stroke="#14162E" stroke-width="1.5"/>
<path d="M29.5363 30.1797C28.4922 30.1797 27.5862 30.0237 26.8182 29.7117C26.0502 29.3997 25.4563 28.9617 25.0363 28.3977C24.6163 27.8217 24.4062 27.1497 24.4062 26.3817C24.4062 25.6137 24.6102 24.9657 25.0182 24.4377C25.4262 23.9097 26.0142 23.5077 26.7822 23.2317C27.5502 22.9557 28.4683 22.8177 29.5363 22.8177C30.6043 22.8177 31.5223 22.9557 32.2902 23.2317C33.0703 23.5077 33.6642 23.9157 34.0722 24.4557C34.4922 24.9837 34.7023 25.6257 34.7023 26.3817C34.7023 27.1497 34.4862 27.8217 34.0542 28.3977C33.6342 28.9617 33.0343 29.3997 32.2543 29.7117C31.4863 30.0237 30.5803 30.1797 29.5363 30.1797ZM29.5363 28.3437C30.4003 28.3437 31.0843 28.1637 31.5883 27.8037C32.0923 27.4437 32.3443 26.9457 32.3443 26.3097C32.3443 25.6857 32.0923 25.1937 31.5883 24.8337C31.0843 24.4737 30.4003 24.2937 29.5363 24.2937C28.6723 24.2937 27.9942 24.4737 27.5022 24.8337C27.0102 25.1937 26.7642 25.6857 26.7642 26.3097C26.7642 26.9457 27.0102 27.4437 27.5022 27.8037C27.9942 28.1637 28.6723 28.3437 29.5363 28.3437ZM29.5363 24.0417C28.5643 24.0417 27.7303 23.9157 27.0343 23.6637C26.3383 23.3997 25.7982 23.0217 25.4142 22.5297C25.0422 22.0257 24.8562 21.4257 24.8562 20.7297C24.8562 20.0097 25.0483 19.3917 25.4323 18.8757C25.8283 18.3477 26.3803 17.9397 27.0883 17.6517C27.7963 17.3637 28.6123 17.2197 29.5363 17.2197C30.4723 17.2197 31.2942 17.3637 32.0022 17.6517C32.7102 17.9397 33.2622 18.3477 33.6582 18.8757C34.0542 19.3917 34.2522 20.0097 34.2522 20.7297C34.2522 21.4257 34.0602 22.0257 33.6762 22.5297C33.3043 23.0217 32.7643 23.3997 32.0563 23.6637C31.3483 23.9157 30.5083 24.0417 29.5363 24.0417ZM29.5363 22.6017C30.2803 22.6017 30.8683 22.4457 31.3003 22.1337C31.7323 21.8097 31.9483 21.3777 31.9483 20.8377C31.9483 20.2737 31.7263 19.8357 31.2823 19.5237C30.8383 19.2117 30.2563 19.0557 29.5363 19.0557C28.8163 19.0557 28.2402 19.2117 27.8082 19.5237C27.3762 19.8357 27.1602 20.2737 27.1602 20.8377C27.1602 21.3777 27.3702 21.8097 27.7902 22.1337C28.2222 22.4457 28.8042 22.6017 29.5363 22.6017Z" fill="url(#paint0_radial_11021_14530)"/>
<path d="M17.6232 30.1797C16.6272 30.1797 15.7272 29.9277 14.9232 29.4237C14.1312 28.9197 13.5072 28.1877 13.0512 27.2277C12.5952 26.2557 12.3672 25.0797 12.3672 23.6997C12.3672 22.3197 12.5952 21.1497 13.0512 20.1897C13.5072 19.2177 14.1312 18.4797 14.9232 17.9757C15.7272 17.4717 16.6272 17.2197 17.6232 17.2197C18.6312 17.2197 19.5312 17.4717 20.3232 17.9757C21.1152 18.4797 21.7392 19.2177 22.1952 20.1897C22.6632 21.1497 22.8972 22.3197 22.8972 23.6997C22.8972 25.0797 22.6632 26.2557 22.1952 27.2277C21.7392 28.1877 21.1152 28.9197 20.3232 29.4237C19.5312 29.9277 18.6312 30.1797 17.6232 30.1797ZM17.6232 28.1457C18.2112 28.1457 18.7212 27.9897 19.1532 27.6777C19.5852 27.3537 19.9212 26.8617 20.1612 26.2017C20.4132 25.5417 20.5392 24.7077 20.5392 23.6997C20.5392 22.6797 20.4132 21.8457 20.1612 21.1977C19.9212 20.5377 19.5852 20.0517 19.1532 19.7397C18.7212 19.4157 18.2112 19.2537 17.6232 19.2537C17.0592 19.2537 16.5552 19.4157 16.1112 19.7397C15.6792 20.0517 15.3372 20.5377 15.0852 21.1977C14.8452 21.8457 14.7252 22.6797 14.7252 23.6997C14.7252 24.7077 14.8452 25.5417 15.0852 26.2017C15.3372 26.8617 15.6792 27.3537 16.1112 27.6777C16.5552 27.9897 17.0592 28.1457 17.6232 28.1457Z" fill="url(#paint1_radial_11021_14530)"/>
<defs>
<radialGradient id="paint0_radial_11021_14530" cx="0" cy="0" r="1" gradientUnits="userSpaceOnUse" gradientTransform="translate(29.5543 23.6997) rotate(90) scale(6.48 5.148)">
<stop stop-color="white"/>
<stop offset="1" stop-color="#CDDFF2"/>
</radialGradient>
<radialGradient id="paint1_radial_11021_14530" cx="0" cy="0" r="1" gradientUnits="userSpaceOnUse" gradientTransform="translate(17.6322 23.6997) rotate(90) scale(6.48 5.265)">
<stop stop-color="white"/>
<stop offset="1" stop-color="#CDDFF2"/>
</radialGradient>
</defs>
</svg>
