<svg width="48" height="50" viewBox="0 0 48 50" fill="none" xmlns="http://www.w3.org/2000/svg">
<rect x="16" y="44" width="16" height="6" rx="3" fill="#626583"/>
<rect x="0.75" y="0.75" width="46.5" height="46.5" rx="11.25" fill="#090A23" stroke="#14162E" stroke-width="1.5"/>
<path d="M29.7692 30.1794C28.8812 30.1794 28.0112 30.0534 27.1592 29.8014C26.3192 29.5374 25.6112 29.1774 25.0352 28.7214L26.0252 26.9034C26.4812 27.2754 27.0332 27.5754 27.6812 27.8034C28.3412 28.0314 29.0252 28.1454 29.7332 28.1454C30.5612 28.1454 31.2092 27.9714 31.6772 27.6234C32.1572 27.2754 32.3972 26.8074 32.3972 26.2194C32.3972 25.8234 32.2952 25.4754 32.0912 25.1754C31.8992 24.8754 31.5512 24.6474 31.0472 24.4914C30.5552 24.3354 29.8772 24.2574 29.0132 24.2574H25.9712L26.6192 17.3994H34.0172V19.3614H27.4832L28.7072 18.2454L28.2212 23.3754L26.9972 22.2774H29.5352C30.7832 22.2774 31.7852 22.4454 32.5412 22.7814C33.3092 23.1054 33.8672 23.5614 34.2152 24.1494C34.5752 24.7254 34.7552 25.3854 34.7552 26.1294C34.7552 26.8614 34.5752 27.5334 34.2152 28.1454C33.8552 28.7574 33.3032 29.2494 32.5592 29.6214C31.8272 29.9934 30.8972 30.1794 29.7692 30.1794Z" fill="url(#paint0_radial_11021_14518)"/>
<path d="M18.7365 30.1797C17.7405 30.1797 16.8405 29.9277 16.0365 29.4237C15.2445 28.9197 14.6205 28.1877 14.1645 27.2277C13.7085 26.2557 13.4805 25.0797 13.4805 23.6997C13.4805 22.3197 13.7085 21.1497 14.1645 20.1897C14.6205 19.2177 15.2445 18.4797 16.0365 17.9757C16.8405 17.4717 17.7405 17.2197 18.7365 17.2197C19.7445 17.2197 20.6445 17.4717 21.4365 17.9757C22.2285 18.4797 22.8525 19.2177 23.3085 20.1897C23.7765 21.1497 24.0105 22.3197 24.0105 23.6997C24.0105 25.0797 23.7765 26.2557 23.3085 27.2277C22.8525 28.1877 22.2285 28.9197 21.4365 29.4237C20.6445 29.9277 19.7445 30.1797 18.7365 30.1797ZM18.7365 28.1457C19.3245 28.1457 19.8345 27.9897 20.2665 27.6777C20.6985 27.3537 21.0345 26.8617 21.2745 26.2017C21.5265 25.5417 21.6525 24.7077 21.6525 23.6997C21.6525 22.6797 21.5265 21.8457 21.2745 21.1977C21.0345 20.5377 20.6985 20.0517 20.2665 19.7397C19.8345 19.4157 19.3245 19.2537 18.7365 19.2537C18.1725 19.2537 17.6685 19.4157 17.2245 19.7397C16.7925 20.0517 16.4505 20.5377 16.1985 21.1977C15.9585 21.8457 15.8385 22.6797 15.8385 23.6997C15.8385 24.7077 15.9585 25.5417 16.1985 26.2017C16.4505 26.8617 16.7925 27.3537 17.2245 27.6777C17.6685 27.9897 18.1725 28.1457 18.7365 28.1457Z" fill="url(#paint1_radial_11021_14518)"/>
<defs>
<radialGradient id="paint0_radial_11021_14518" cx="0" cy="0" r="1" gradientUnits="userSpaceOnUse" gradientTransform="translate(29.8952 23.7894) rotate(90) scale(6.39 4.86)">
<stop stop-color="white"/>
<stop offset="1" stop-color="#CDDFF2"/>
</radialGradient>
<radialGradient id="paint1_radial_11021_14518" cx="0" cy="0" r="1" gradientUnits="userSpaceOnUse" gradientTransform="translate(18.7455 23.6997) rotate(90) scale(6.48 5.265)">
<stop stop-color="white"/>
<stop offset="1" stop-color="#CDDFF2"/>
</radialGradient>
</defs>
</svg>
