<svg width="48" height="50" viewBox="0 0 48 50" fill="none" xmlns="http://www.w3.org/2000/svg">
<rect x="16" y="44" width="16" height="6" rx="3" fill="#626583"/>
<rect x="0.75" y="0.75" width="46.5" height="46.5" rx="11.25" fill="#090A23" stroke="#14162E" stroke-width="1.5"/>
<path d="M29.4801 30.1794C28.5921 30.1794 27.7221 30.0534 26.8701 29.8014C26.0301 29.5374 25.3221 29.1774 24.7461 28.7214L25.7541 26.9034C26.2101 27.2754 26.7621 27.5754 27.4101 27.8034C28.0581 28.0314 28.7361 28.1454 29.4441 28.1454C30.2841 28.1454 30.9381 27.9774 31.4061 27.6414C31.8741 27.2934 32.1081 26.8254 32.1081 26.2374C32.1081 25.6614 31.8921 25.2054 31.4601 24.8694C31.0281 24.5334 30.3321 24.3654 29.3721 24.3654H28.2201V22.7634L31.8201 18.4794L32.1261 19.3614H25.3581V17.3994H33.9441V18.9654L30.3441 23.2494L29.1201 22.5294H29.8221C31.3701 22.5294 32.5281 22.8774 33.2961 23.5734C34.0761 24.2574 34.4661 25.1394 34.4661 26.2194C34.4661 26.9274 34.2861 27.5814 33.9261 28.1814C33.5661 28.7814 33.0141 29.2674 32.2701 29.6394C31.5381 29.9994 30.6081 30.1794 29.4801 30.1794Z" fill="url(#paint0_radial_11021_14510)"/>
<path d="M18.8419 30.1797C17.8459 30.1797 16.9459 29.9277 16.1419 29.4237C15.3499 28.9197 14.7259 28.1877 14.2699 27.2277C13.8139 26.2557 13.5859 25.0797 13.5859 23.6997C13.5859 22.3197 13.8139 21.1497 14.2699 20.1897C14.7259 19.2177 15.3499 18.4797 16.1419 17.9757C16.9459 17.4717 17.8459 17.2197 18.8419 17.2197C19.8499 17.2197 20.7499 17.4717 21.5419 17.9757C22.3339 18.4797 22.9579 19.2177 23.4139 20.1897C23.8819 21.1497 24.1159 22.3197 24.1159 23.6997C24.1159 25.0797 23.8819 26.2557 23.4139 27.2277C22.9579 28.1877 22.3339 28.9197 21.5419 29.4237C20.7499 29.9277 19.8499 30.1797 18.8419 30.1797ZM18.8419 28.1457C19.4299 28.1457 19.9399 27.9897 20.3719 27.6777C20.8039 27.3537 21.1399 26.8617 21.3799 26.2017C21.6319 25.5417 21.7579 24.7077 21.7579 23.6997C21.7579 22.6797 21.6319 21.8457 21.3799 21.1977C21.1399 20.5377 20.8039 20.0517 20.3719 19.7397C19.9399 19.4157 19.4299 19.2537 18.8419 19.2537C18.2779 19.2537 17.7739 19.4157 17.3299 19.7397C16.8979 20.0517 16.5559 20.5377 16.3039 21.1977C16.0639 21.8457 15.9439 22.6797 15.9439 23.6997C15.9439 24.7077 16.0639 25.5417 16.3039 26.2017C16.5559 26.8617 16.8979 27.3537 17.3299 27.6777C17.7739 27.9897 18.2779 28.1457 18.8419 28.1457Z" fill="url(#paint1_radial_11021_14510)"/>
<defs>
<radialGradient id="paint0_radial_11021_14510" cx="0" cy="0" r="1" gradientUnits="userSpaceOnUse" gradientTransform="translate(29.6061 23.7894) rotate(90) scale(6.39 4.86)">
<stop stop-color="white"/>
<stop offset="1" stop-color="#CDDFF2"/>
</radialGradient>
<radialGradient id="paint1_radial_11021_14510" cx="0" cy="0" r="1" gradientUnits="userSpaceOnUse" gradientTransform="translate(18.8509 23.6997) rotate(90) scale(6.48 5.265)">
<stop stop-color="white"/>
<stop offset="1" stop-color="#CDDFF2"/>
</radialGradient>
</defs>
</svg>
