<svg width="48" height="50" viewBox="0 0 48 50" fill="none" xmlns="http://www.w3.org/2000/svg">
<rect x="16" y="44" width="16" height="6" rx="3" fill="#626583"/>
<rect x="0.75" y="0.75" width="46.5" height="46.5" rx="11.25" fill="#090A23" stroke="#14162E" stroke-width="1.5"/>
<path d="M24.5586 27.1374V25.5174L30.7686 17.3994H33.2706L27.1506 25.5174L25.9806 25.1574H35.9706V27.1374H24.5586ZM31.4706 29.9994V27.1374L31.5426 25.1574V22.6194H33.7386V29.9994H31.4706Z" fill="url(#paint0_radial_11021_14514)"/>
<path d="M17.8849 30.1797C16.8889 30.1797 15.9889 29.9277 15.1849 29.4237C14.3929 28.9197 13.7689 28.1877 13.3129 27.2277C12.8569 26.2557 12.6289 25.0797 12.6289 23.6997C12.6289 22.3197 12.8569 21.1497 13.3129 20.1897C13.7689 19.2177 14.3929 18.4797 15.1849 17.9757C15.9889 17.4717 16.8889 17.2197 17.8849 17.2197C18.8929 17.2197 19.7929 17.4717 20.5849 17.9757C21.3769 18.4797 22.0009 19.2177 22.4569 20.1897C22.9249 21.1497 23.1589 22.3197 23.1589 23.6997C23.1589 25.0797 22.9249 26.2557 22.4569 27.2277C22.0009 28.1877 21.3769 28.9197 20.5849 29.4237C19.7929 29.9277 18.8929 30.1797 17.8849 30.1797ZM17.8849 28.1457C18.4729 28.1457 18.9829 27.9897 19.4149 27.6777C19.8469 27.3537 20.1829 26.8617 20.4229 26.2017C20.6749 25.5417 20.8009 24.7077 20.8009 23.6997C20.8009 22.6797 20.6749 21.8457 20.4229 21.1977C20.1829 20.5377 19.8469 20.0517 19.4149 19.7397C18.9829 19.4157 18.4729 19.2537 17.8849 19.2537C17.3209 19.2537 16.8169 19.4157 16.3729 19.7397C15.9409 20.0517 15.5989 20.5377 15.3469 21.1977C15.1069 21.8457 14.9869 22.6797 14.9869 23.6997C14.9869 24.7077 15.1069 25.5417 15.3469 26.2017C15.5989 26.8617 15.9409 27.3537 16.3729 27.6777C16.8169 27.9897 17.3209 28.1457 17.8849 28.1457Z" fill="url(#paint1_radial_11021_14514)"/>
<defs>
<radialGradient id="paint0_radial_11021_14514" cx="0" cy="0" r="1" gradientUnits="userSpaceOnUse" gradientTransform="translate(30.2646 23.6994) rotate(90) scale(6.3 5.706)">
<stop stop-color="white"/>
<stop offset="1" stop-color="#CDDFF2"/>
</radialGradient>
<radialGradient id="paint1_radial_11021_14514" cx="0" cy="0" r="1" gradientUnits="userSpaceOnUse" gradientTransform="translate(17.8939 23.6997) rotate(90) scale(6.48 5.265)">
<stop stop-color="white"/>
<stop offset="1" stop-color="#CDDFF2"/>
</radialGradient>
</defs>
</svg>
