<svg width="48" height="50" viewBox="0 0 48 50" fill="none" xmlns="http://www.w3.org/2000/svg">
<rect x="16" y="44" width="16" height="6" rx="3" fill="#626583"/>
<rect x="0.75" y="0.75" width="46.5" height="46.5" rx="11.25" fill="#090A23" stroke="#14162E" stroke-width="1.5"/>
<path d="M30.1571 30.1797C29.0171 30.1797 28.0391 29.9397 27.2231 29.4597C26.4071 28.9677 25.7831 28.2597 25.3511 27.3357C24.9191 26.4117 24.7031 25.2717 24.7031 23.9157C24.7031 22.4757 24.9611 21.2577 25.4771 20.2617C26.0051 19.2657 26.7311 18.5097 27.6551 17.9937C28.5911 17.4777 29.6651 17.2197 30.8771 17.2197C31.5131 17.2197 32.1191 17.2857 32.6951 17.4177C33.2831 17.5497 33.7811 17.7537 34.1891 18.0297L33.3251 19.7937C32.9771 19.5657 32.5991 19.4097 32.1911 19.3257C31.7951 19.2297 31.3751 19.1817 30.9311 19.1817C29.7431 19.1817 28.8011 19.5477 28.1051 20.2797C27.4091 21.0117 27.0611 22.0917 27.0611 23.5197C27.0611 23.7477 27.0671 24.0177 27.0791 24.3297C27.0911 24.6297 27.1331 24.9357 27.2051 25.2477L26.4851 24.4557C26.7011 23.9637 26.9951 23.5557 27.3671 23.2317C27.7511 22.8957 28.2011 22.6437 28.7171 22.4757C29.2451 22.3077 29.8151 22.2237 30.4271 22.2237C31.2551 22.2237 31.9931 22.3857 32.6411 22.7097C33.2891 23.0217 33.8051 23.4717 34.1891 24.0597C34.5731 24.6357 34.7651 25.3137 34.7651 26.0937C34.7651 26.9217 34.5611 27.6417 34.1531 28.2537C33.7451 28.8657 33.1931 29.3397 32.4971 29.6757C31.8011 30.0117 31.0211 30.1797 30.1571 30.1797ZM30.0311 28.3437C30.5111 28.3437 30.9371 28.2597 31.3091 28.0917C31.6811 27.9117 31.9691 27.6597 32.1731 27.3357C32.3891 27.0117 32.4971 26.6337 32.4971 26.2017C32.4971 25.5417 32.2691 25.0197 31.8131 24.6357C31.3571 24.2517 30.7451 24.0597 29.9771 24.0597C29.4731 24.0597 29.0291 24.1557 28.6451 24.3477C28.2731 24.5277 27.9731 24.7797 27.7451 25.1037C27.5291 25.4277 27.4211 25.7997 27.4211 26.2197C27.4211 26.6037 27.5231 26.9577 27.7271 27.2817C27.9311 27.6057 28.2251 27.8637 28.6091 28.0557C29.0051 28.2477 29.4791 28.3437 30.0311 28.3437Z" fill="url(#paint0_radial_11021_14522)"/>
<path d="M17.8498 30.1797C16.8538 30.1797 15.9538 29.9277 15.1497 29.4237C14.3577 28.9197 13.7338 28.1877 13.2778 27.2277C12.8218 26.2557 12.5938 25.0797 12.5938 23.6997C12.5938 22.3197 12.8218 21.1497 13.2778 20.1897C13.7338 19.2177 14.3577 18.4797 15.1497 17.9757C15.9538 17.4717 16.8538 17.2197 17.8498 17.2197C18.8578 17.2197 19.7578 17.4717 20.5498 17.9757C21.3418 18.4797 21.9658 19.2177 22.4218 20.1897C22.8898 21.1497 23.1238 22.3197 23.1238 23.6997C23.1238 25.0797 22.8898 26.2557 22.4218 27.2277C21.9658 28.1877 21.3418 28.9197 20.5498 29.4237C19.7578 29.9277 18.8578 30.1797 17.8498 30.1797ZM17.8498 28.1457C18.4378 28.1457 18.9478 27.9897 19.3798 27.6777C19.8118 27.3537 20.1478 26.8617 20.3878 26.2017C20.6398 25.5417 20.7658 24.7077 20.7658 23.6997C20.7658 22.6797 20.6398 21.8457 20.3878 21.1977C20.1478 20.5377 19.8118 20.0517 19.3798 19.7397C18.9478 19.4157 18.4378 19.2537 17.8498 19.2537C17.2858 19.2537 16.7818 19.4157 16.3378 19.7397C15.9058 20.0517 15.5638 20.5377 15.3118 21.1977C15.0718 21.8457 14.9518 22.6797 14.9518 23.6997C14.9518 24.7077 15.0718 25.5417 15.3118 26.2017C15.5638 26.8617 15.9058 27.3537 16.3378 27.6777C16.7818 27.9897 17.2858 28.1457 17.8498 28.1457Z" fill="url(#paint1_radial_11021_14522)"/>
<defs>
<radialGradient id="paint0_radial_11021_14522" cx="0" cy="0" r="1" gradientUnits="userSpaceOnUse" gradientTransform="translate(29.7341 23.6997) rotate(90) scale(6.48 5.031)">
<stop stop-color="white"/>
<stop offset="1" stop-color="#CDDFF2"/>
</radialGradient>
<radialGradient id="paint1_radial_11021_14522" cx="0" cy="0" r="1" gradientUnits="userSpaceOnUse" gradientTransform="translate(17.8588 23.6997) rotate(90) scale(6.48 5.265)">
<stop stop-color="white"/>
<stop offset="1" stop-color="#CDDFF2"/>
</radialGradient>
</defs>
</svg>
