<svg width="102" height="24" viewBox="0 0 102 24" fill="none" xmlns="http://www.w3.org/2000/svg">
<g filter="url(#filter0_b_11028_14552)">
<path d="M0 8C0 3.58172 3.58172 0 8 0H94C98.4183 0 102 3.58172 102 8V24H0V8Z" fill="white" fill-opacity="0.04"/>
<path d="M14.5267 13.972L14.4667 12.508L19.2307 7.6H20.5987L16.9147 11.488L16.2427 12.232L14.5267 13.972ZM13.4707 16V7.6H14.6707V16H13.4707ZM19.4227 16L15.9787 11.992L16.7827 11.104L20.8267 16H19.4227ZM25.1077 11.224H29.4277V12.244H25.1077V11.224ZM25.2157 14.956H30.1117V16H24.0157V7.6H29.9437V8.644H25.2157V14.956ZM35.909 16V12.784L36.185 13.528L32.573 7.6H33.857L36.893 12.604H36.197L39.245 7.6H40.433L36.833 13.528L37.097 12.784V16H35.909ZM45.2565 16L42.4485 7.6H43.6845L46.2645 15.352H45.6405L48.3165 7.6H49.4205L52.0365 15.352H51.4365L54.0525 7.6H55.1925L52.3845 16H51.1245L48.6765 8.812H49.0005L46.5405 16H45.2565ZM62.2904 16.096C61.6504 16.096 61.0544 15.988 60.5024 15.772C59.9584 15.556 59.4864 15.256 59.0864 14.872C58.6864 14.48 58.3744 14.024 58.1504 13.504C57.9264 12.984 57.8144 12.416 57.8144 11.8C57.8144 11.184 57.9264 10.616 58.1504 10.096C58.3744 9.576 58.6864 9.124 59.0864 8.74C59.4864 8.348 59.9584 8.044 60.5024 7.828C61.0464 7.612 61.6424 7.504 62.2904 7.504C62.9304 7.504 63.5184 7.612 64.0544 7.828C64.5984 8.036 65.0704 8.336 65.4704 8.728C65.8784 9.112 66.1904 9.564 66.4064 10.084C66.6304 10.604 66.7424 11.176 66.7424 11.8C66.7424 12.424 66.6304 12.996 66.4064 13.516C66.1904 14.036 65.8784 14.492 65.4704 14.884C65.0704 15.268 64.5984 15.568 64.0544 15.784C63.5184 15.992 62.9304 16.096 62.2904 16.096ZM62.2904 15.028C62.7544 15.028 63.1824 14.948 63.5744 14.788C63.9744 14.628 64.3184 14.404 64.6064 14.116C64.9024 13.82 65.1304 13.476 65.2904 13.084C65.4584 12.692 65.5424 12.264 65.5424 11.8C65.5424 11.336 65.4584 10.908 65.2904 10.516C65.1304 10.124 64.9024 9.784 64.6064 9.496C64.3184 9.2 63.9744 8.972 63.5744 8.812C63.1824 8.652 62.7544 8.572 62.2904 8.572C61.8184 8.572 61.3824 8.652 60.9824 8.812C60.5904 8.972 60.2464 9.2 59.9504 9.496C59.6544 9.784 59.4224 10.124 59.2544 10.516C59.0944 10.908 59.0144 11.336 59.0144 11.8C59.0144 12.264 59.0944 12.692 59.2544 13.084C59.4224 13.476 59.6544 13.82 59.9504 14.116C60.2464 14.404 60.5904 14.628 60.9824 14.788C61.3824 14.948 61.8184 15.028 62.2904 15.028ZM70.4965 16V7.6H73.7725C74.5085 7.6 75.1365 7.716 75.6565 7.948C76.1765 8.18 76.5765 8.516 76.8565 8.956C77.1365 9.396 77.2765 9.92 77.2765 10.528C77.2765 11.136 77.1365 11.66 76.8565 12.1C76.5765 12.532 76.1765 12.864 75.6565 13.096C75.1365 13.328 74.5085 13.444 73.7725 13.444H71.1565L71.6965 12.892V16H70.4965ZM76.1125 16L73.9765 12.952H75.2605L77.4205 16H76.1125ZM71.6965 13.012L71.1565 12.424H73.7365C74.5045 12.424 75.0845 12.26 75.4765 11.932C75.8765 11.596 76.0765 11.128 76.0765 10.528C76.0765 9.928 75.8765 9.464 75.4765 9.136C75.0845 8.808 74.5045 8.644 73.7365 8.644H71.1565L71.6965 8.044V13.012ZM81.1352 16V7.6H84.6752C85.5712 7.6 86.3592 7.776 87.0392 8.128C87.7272 8.48 88.2592 8.972 88.6352 9.604C89.0192 10.236 89.2112 10.968 89.2112 11.8C89.2112 12.632 89.0192 13.364 88.6352 13.996C88.2592 14.628 87.7272 15.12 87.0392 15.472C86.3592 15.824 85.5712 16 84.6752 16H81.1352ZM82.3352 14.956H84.6032C85.2992 14.956 85.8992 14.824 86.4032 14.56C86.9152 14.296 87.3112 13.928 87.5912 13.456C87.8712 12.976 88.0112 12.424 88.0112 11.8C88.0112 11.168 87.8712 10.616 87.5912 10.144C87.3112 9.672 86.9152 9.304 86.4032 9.04C85.8992 8.776 85.2992 8.644 84.6032 8.644H82.3352V14.956Z" fill="#FF7DBC"/>
</g>
<defs>
<filter id="filter0_b_11028_14552" x="-40" y="-40" width="182" height="104" filterUnits="userSpaceOnUse" color-interpolation-filters="sRGB">
<feFlood flood-opacity="0" result="BackgroundImageFix"/>
<feGaussianBlur in="BackgroundImageFix" stdDeviation="20"/>
<feComposite in2="SourceAlpha" operator="in" result="effect1_backgroundBlur_11028_14552"/>
<feBlend mode="normal" in="SourceGraphic" in2="effect1_backgroundBlur_11028_14552" result="shape"/>
</filter>
</defs>
</svg>
