<svg width="336" height="24" viewBox="0 0 336 24" fill="none" xmlns="http://www.w3.org/2000/svg">
<rect x="0.72" y="0.72" width="22.56" height="22.56" rx="6.48" fill="url(#paint0_linear_11028_14541)"/>
<rect x="0.72" y="0.72" width="22.56" height="22.56" rx="6.48" stroke="url(#paint1_linear_11028_14541)" stroke-width="1.44"/>
<path d="M8.71144 16.1037C8.4964 16.1037 8.31976 16.0538 8.18152 15.9539C8.05096 15.8541 7.96648 15.7197 7.92808 15.5507C7.89736 15.3818 7.93192 15.1936 8.03176 14.9862L10.9809 8.52352C11.1038 8.2624 11.2497 8.07424 11.4186 7.95904C11.5876 7.83616 11.7834 7.77472 12.0062 7.77472C12.2289 7.77472 12.4247 7.83616 12.5937 7.95904C12.7626 8.07424 12.9047 8.2624 13.0199 8.52352L15.9921 14.9862C16.0919 15.1936 16.1265 15.3856 16.0958 15.5622C16.0727 15.7312 15.9959 15.8656 15.8654 15.9654C15.7348 16.0576 15.5658 16.1037 15.3585 16.1037C15.0974 16.1037 14.8938 16.0422 14.7479 15.9194C14.6097 15.7965 14.4868 15.6045 14.3793 15.3434L13.6881 13.7421L14.4023 14.2374H9.59848L10.3127 13.7421L9.63304 15.3434C9.51784 15.6122 9.39496 15.808 9.2644 15.9309C9.14152 16.0461 8.9572 16.1037 8.71144 16.1037ZM11.9831 9.7792L10.5086 13.2928L10.1975 12.8435H13.8033L13.4922 13.2928L12.0062 9.7792H11.9831Z" fill="#A3A3AE"/>
<rect x="48.72" y="0.72" width="22.56" height="22.56" rx="6.48" fill="url(#paint2_linear_11028_14541)"/>
<rect x="48.72" y="0.72" width="22.56" height="22.56" rx="6.48" stroke="url(#paint3_linear_11028_14541)" stroke-width="1.44"/>
<path d="M57.746 16C57.4465 16 57.2161 15.9194 57.0548 15.7581C56.8936 15.5968 56.8129 15.3664 56.8129 15.0669V8.81152C56.8129 8.512 56.8936 8.2816 57.0548 8.12032C57.2161 7.95904 57.4465 7.8784 57.746 7.8784H60.5339C61.1099 7.8784 61.6014 7.96288 62.0084 8.13184C62.4155 8.3008 62.7227 8.54272 62.93 8.8576C63.1451 9.17248 63.2526 9.5488 63.2526 9.98656C63.2526 10.4704 63.1144 10.8813 62.8379 11.2192C62.5614 11.5571 62.1812 11.7837 61.6974 11.8989V11.7146C62.258 11.8144 62.692 12.0371 62.9992 12.3827C63.314 12.7206 63.4715 13.1622 63.4715 13.7075C63.4715 14.4294 63.2219 14.9939 62.7227 15.401C62.2235 15.8003 61.5361 16 60.6606 16H57.746ZM58.5179 14.6752H60.4187C60.8795 14.6752 61.2174 14.5869 61.4324 14.4102C61.6475 14.2259 61.755 13.9571 61.755 13.6038C61.755 13.2506 61.6475 12.9856 61.4324 12.809C61.2174 12.6323 60.8795 12.544 60.4187 12.544H58.5179V14.6752ZM58.5179 11.2192H60.2228C60.6683 11.2192 60.9985 11.1347 61.2136 10.9658C61.4286 10.7968 61.5361 10.5434 61.5361 10.2054C61.5361 9.8752 61.4286 9.6256 61.2136 9.45664C60.9985 9.28768 60.6683 9.2032 60.2228 9.2032H58.5179V11.2192Z" fill="#A3A3AE"/>
<rect x="96.72" y="0.72" width="22.56" height="22.56" rx="6.48" fill="url(#paint4_linear_11028_14541)"/>
<rect x="96.72" y="0.72" width="22.56" height="22.56" rx="6.48" stroke="url(#paint5_linear_11028_14541)" stroke-width="1.44"/>
<path d="M108.82 16.1267C107.945 16.1267 107.196 15.9539 106.574 15.6083C105.952 15.2627 105.472 14.7789 105.134 14.1568C104.804 13.527 104.638 12.7859 104.638 11.9334C104.638 11.296 104.731 10.7238 104.915 10.217C105.107 9.7024 105.383 9.26464 105.744 8.90368C106.105 8.53504 106.543 8.25088 107.058 8.0512C107.58 7.85152 108.167 7.75168 108.82 7.75168C109.204 7.75168 109.592 7.8016 109.984 7.90144C110.383 7.9936 110.729 8.128 111.021 8.30464C111.213 8.41216 111.343 8.54656 111.412 8.70784C111.481 8.86912 111.501 9.0304 111.47 9.19168C111.447 9.35296 111.382 9.4912 111.274 9.6064C111.174 9.7216 111.047 9.79456 110.894 9.82528C110.74 9.856 110.567 9.82144 110.375 9.7216C110.145 9.58336 109.903 9.48352 109.65 9.42208C109.396 9.36064 109.139 9.32992 108.878 9.32992C108.363 9.32992 107.929 9.4336 107.576 9.64096C107.231 9.84064 106.969 10.1325 106.793 10.5165C106.616 10.9005 106.528 11.3728 106.528 11.9334C106.528 12.4864 106.616 12.9587 106.793 13.3504C106.969 13.7421 107.231 14.0416 107.576 14.249C107.929 14.4486 108.363 14.5485 108.878 14.5485C109.124 14.5485 109.373 14.5178 109.627 14.4563C109.888 14.3949 110.137 14.2989 110.375 14.1683C110.575 14.0685 110.752 14.0339 110.905 14.0646C111.067 14.0877 111.197 14.1568 111.297 14.272C111.405 14.3795 111.47 14.5101 111.493 14.6637C111.524 14.8173 111.508 14.9709 111.447 15.1245C111.385 15.2781 111.27 15.4086 111.101 15.5162C110.817 15.7082 110.468 15.8579 110.053 15.9654C109.638 16.073 109.227 16.1267 108.82 16.1267Z" fill="#A3A3AE"/>
<rect x="144.72" y="0.72" width="22.56" height="22.56" rx="6.48" fill="url(#paint6_linear_11028_14541)"/>
<rect x="144.72" y="0.72" width="22.56" height="22.56" rx="6.48" stroke="url(#paint7_linear_11028_14541)" stroke-width="1.44"/>
<path d="M153.29 16C152.991 16 152.76 15.9194 152.599 15.7581C152.438 15.5968 152.357 15.3664 152.357 15.0669V8.81152C152.357 8.512 152.438 8.2816 152.599 8.12032C152.76 7.95904 152.991 7.8784 153.29 7.8784H155.537C156.927 7.8784 157.998 8.23168 158.751 8.93824C159.511 9.63712 159.891 10.6355 159.891 11.9334C159.891 12.5862 159.792 13.1661 159.592 13.673C159.4 14.1722 159.12 14.5946 158.751 14.9402C158.382 15.2858 157.929 15.5507 157.392 15.735C156.854 15.9117 156.236 16 155.537 16H153.29ZM154.143 14.537H155.433C155.871 14.537 156.251 14.4832 156.574 14.3757C156.896 14.2682 157.165 14.1069 157.38 13.8918C157.595 13.6768 157.756 13.408 157.864 13.0854C157.971 12.7552 158.025 12.3712 158.025 11.9334C158.025 11.0579 157.806 10.409 157.368 9.98656C156.938 9.55648 156.293 9.34144 155.433 9.34144H154.143V14.537Z" fill="#A3A3AE"/>
<rect x="192.72" y="0.72" width="22.56" height="22.56" rx="6.48" fill="url(#paint8_linear_11028_14541)"/>
<rect x="192.72" y="0.72" width="22.56" height="22.56" rx="6.48" stroke="url(#paint9_linear_11028_14541)" stroke-width="1.44"/>
<path d="M202.264 16C201.964 16 201.734 15.9194 201.572 15.7581C201.411 15.5968 201.33 15.3664 201.33 15.0669V8.81152C201.33 8.512 201.411 8.2816 201.572 8.12032C201.734 7.95904 201.964 7.8784 202.264 7.8784H206.284C206.514 7.8784 206.687 7.93984 206.802 8.06272C206.925 8.17792 206.987 8.34688 206.987 8.5696C206.987 8.8 206.925 8.97664 206.802 9.09952C206.687 9.21472 206.514 9.27232 206.284 9.27232H203.035V11.1731H206.019C206.257 11.1731 206.434 11.2346 206.549 11.3574C206.672 11.4726 206.733 11.6454 206.733 11.8758C206.733 12.1062 206.672 12.2829 206.549 12.4058C206.434 12.521 206.257 12.5786 206.019 12.5786H203.035V14.6061H206.284C206.514 14.6061 206.687 14.6675 206.802 14.7904C206.925 14.9056 206.987 15.0746 206.987 15.2973C206.987 15.5277 206.925 15.7043 206.802 15.8272C206.687 15.9424 206.514 16 206.284 16H202.264Z" fill="#A3A3AE"/>
<rect x="240.72" y="0.72" width="22.56" height="22.56" rx="6.48" fill="url(#paint10_linear_11028_14541)"/>
<rect x="240.72" y="0.72" width="22.56" height="22.56" rx="6.48" stroke="url(#paint11_linear_11028_14541)" stroke-width="1.44"/>
<path d="M250.443 16.1037C250.151 16.1037 249.925 16.023 249.763 15.8618C249.61 15.7005 249.533 15.4662 249.533 15.159V8.81152C249.533 8.512 249.614 8.2816 249.775 8.12032C249.936 7.95904 250.167 7.8784 250.466 7.8784H254.406C254.636 7.8784 254.809 7.93984 254.924 8.06272C255.047 8.17792 255.109 8.34688 255.109 8.5696C255.109 8.8 255.047 8.97664 254.924 9.09952C254.809 9.21472 254.636 9.27232 254.406 9.27232H251.319V11.2538H254.152C254.383 11.2538 254.559 11.3152 254.682 11.4381C254.805 11.5533 254.867 11.7222 254.867 11.945C254.867 12.1677 254.805 12.3405 254.682 12.4634C254.559 12.5862 254.383 12.6477 254.152 12.6477H251.319V15.159C251.319 15.7888 251.027 16.1037 250.443 16.1037Z" fill="#A3A3AE"/>
<rect x="288.72" y="0.72" width="22.56" height="22.56" rx="6.48" fill="url(#paint12_linear_11028_14541)"/>
<rect x="288.72" y="0.72" width="22.56" height="22.56" rx="6.48" stroke="url(#paint13_linear_11028_14541)" stroke-width="1.44"/>
<path d="M300.563 16.1267C299.649 16.1267 298.874 15.9539 298.236 15.6083C297.607 15.2627 297.127 14.7789 296.796 14.1568C296.466 13.5347 296.301 12.8051 296.301 11.968C296.301 11.3229 296.397 10.743 296.589 10.2285C296.789 9.70624 297.073 9.26464 297.441 8.90368C297.818 8.53504 298.271 8.25088 298.801 8.0512C299.338 7.85152 299.945 7.75168 300.621 7.75168C301.036 7.75168 301.45 7.79776 301.865 7.88992C302.28 7.98208 302.679 8.13568 303.063 8.35072C303.225 8.44288 303.332 8.56192 303.386 8.70784C303.447 8.84608 303.463 8.99584 303.432 9.15712C303.409 9.31072 303.347 9.44896 303.248 9.57184C303.155 9.68704 303.033 9.76384 302.879 9.80224C302.733 9.83296 302.564 9.80224 302.372 9.71008C302.119 9.57184 301.85 9.472 301.566 9.41056C301.281 9.34144 300.97 9.30688 300.633 9.30688C300.087 9.30688 299.63 9.41056 299.262 9.61792C298.893 9.8176 298.617 10.1171 298.432 10.5165C298.256 10.9082 298.167 11.392 298.167 11.968C298.167 12.8358 298.375 13.4925 298.789 13.9379C299.212 14.3834 299.834 14.6061 300.656 14.6061C300.932 14.6061 301.216 14.5792 301.508 14.5254C301.8 14.4717 302.088 14.3949 302.372 14.295L302.038 15.0208V12.809H301.001C300.771 12.809 300.594 12.7514 300.471 12.6362C300.348 12.521 300.287 12.3635 300.287 12.1638C300.287 11.9565 300.348 11.799 300.471 11.6915C300.594 11.5763 300.771 11.5187 301.001 11.5187H302.81C303.04 11.5187 303.213 11.5802 303.328 11.703C303.451 11.8259 303.513 12.0026 303.513 12.233V14.9056C303.513 15.1053 303.474 15.2742 303.397 15.4125C303.321 15.5507 303.19 15.6506 303.006 15.712C302.66 15.8349 302.272 15.9347 301.842 16.0115C301.412 16.0883 300.986 16.1267 300.563 16.1267Z" fill="#A3A3AE"/>
<rect width="336" height="24" fill="url(#paint14_linear_11028_14541)"/>
<defs>
<linearGradient id="paint0_linear_11028_14541" x1="0" y1="0" x2="24" y2="24" gradientUnits="userSpaceOnUse">
<stop stop-color="#2D3047"/>
<stop offset="1" stop-color="#48495F"/>
</linearGradient>
<linearGradient id="paint1_linear_11028_14541" x1="0" y1="0" x2="24" y2="24" gradientUnits="userSpaceOnUse">
<stop stop-color="#48495F"/>
<stop offset="1" stop-color="#2D3047"/>
</linearGradient>
<linearGradient id="paint2_linear_11028_14541" x1="48" y1="0" x2="72" y2="24" gradientUnits="userSpaceOnUse">
<stop stop-color="#2D3047"/>
<stop offset="1" stop-color="#48495F"/>
</linearGradient>
<linearGradient id="paint3_linear_11028_14541" x1="48" y1="0" x2="72" y2="24" gradientUnits="userSpaceOnUse">
<stop stop-color="#48495F"/>
<stop offset="1" stop-color="#2D3047"/>
</linearGradient>
<linearGradient id="paint4_linear_11028_14541" x1="96" y1="0" x2="120" y2="24" gradientUnits="userSpaceOnUse">
<stop stop-color="#2D3047"/>
<stop offset="1" stop-color="#48495F"/>
</linearGradient>
<linearGradient id="paint5_linear_11028_14541" x1="96" y1="0" x2="120" y2="24" gradientUnits="userSpaceOnUse">
<stop stop-color="#48495F"/>
<stop offset="1" stop-color="#2D3047"/>
</linearGradient>
<linearGradient id="paint6_linear_11028_14541" x1="144" y1="0" x2="168" y2="24" gradientUnits="userSpaceOnUse">
<stop stop-color="#2D3047"/>
<stop offset="1" stop-color="#48495F"/>
</linearGradient>
<linearGradient id="paint7_linear_11028_14541" x1="144" y1="0" x2="168" y2="24" gradientUnits="userSpaceOnUse">
<stop stop-color="#48495F"/>
<stop offset="1" stop-color="#2D3047"/>
</linearGradient>
<linearGradient id="paint8_linear_11028_14541" x1="192" y1="0" x2="216" y2="24" gradientUnits="userSpaceOnUse">
<stop stop-color="#2D3047"/>
<stop offset="1" stop-color="#48495F"/>
</linearGradient>
<linearGradient id="paint9_linear_11028_14541" x1="192" y1="0" x2="216" y2="24" gradientUnits="userSpaceOnUse">
<stop stop-color="#48495F"/>
<stop offset="1" stop-color="#2D3047"/>
</linearGradient>
<linearGradient id="paint10_linear_11028_14541" x1="240" y1="0" x2="264" y2="24" gradientUnits="userSpaceOnUse">
<stop stop-color="#2D3047"/>
<stop offset="1" stop-color="#48495F"/>
</linearGradient>
<linearGradient id="paint11_linear_11028_14541" x1="240" y1="0" x2="264" y2="24" gradientUnits="userSpaceOnUse">
<stop stop-color="#48495F"/>
<stop offset="1" stop-color="#2D3047"/>
</linearGradient>
<linearGradient id="paint12_linear_11028_14541" x1="288" y1="0" x2="312" y2="24" gradientUnits="userSpaceOnUse">
<stop stop-color="#2D3047"/>
<stop offset="1" stop-color="#48495F"/>
</linearGradient>
<linearGradient id="paint13_linear_11028_14541" x1="288" y1="0" x2="312" y2="24" gradientUnits="userSpaceOnUse">
<stop stop-color="#48495F"/>
<stop offset="1" stop-color="#2D3047"/>
</linearGradient>
<linearGradient id="paint14_linear_11028_14541" x1="0" y1="12" x2="336" y2="12" gradientUnits="userSpaceOnUse">
<stop stop-color="#070720"/>
<stop offset="0.5" stop-color="#070720" stop-opacity="0"/>
<stop offset="1" stop-color="#070720"/>
</linearGradient>
</defs>
</svg>
