<svg xmlns="http://www.w3.org/2000/svg" width="101" height="56" viewBox="0 0 101 56" fill="none">
<path d="M63.7098 38.6486C71.0623 38.6486 77.5421 42.2248 81.354 47.659C81.6381 48.0641 82.1682 48.218 82.6293 48.0386C84.2239 47.4182 85.9679 47.0764 87.7952 47.0764C93.836 47.0764 98.9653 50.8113 100.8 56H0V0C9.35907 3.04203 16.627 10.4169 19.1957 19.6283C19.3127 20.0479 19.6807 20.3505 20.1149 20.3855C27.24 20.961 33.4525 24.6041 37.3054 29.93C37.7349 30.5236 38.3803 30.9275 39.1018 31.055C45.0439 32.105 50.119 35.5227 53.2192 40.2477C53.5062 40.6851 54.0738 40.8495 54.5494 40.6316C57.3229 39.3604 60.4295 38.6486 63.7098 38.6486Z" fill="white" fill-opacity="0.02"/>
</svg>