<svg width="1261" height="609" viewBox="0 0 1261 609" fill="none" xmlns="http://www.w3.org/2000/svg">
<circle cx="2" cy="2" r="2" transform="matrix(-1 0 0 1 188 176)" fill="white" fill-opacity="0.08"/>
<circle cx="2" cy="2" r="2" transform="matrix(-1 0 0 1 451 411)" fill="white" fill-opacity="0.08"/>
<circle cx="2" cy="2" r="2" transform="matrix(-1 0 0 1 578 545)" fill="white" fill-opacity="0.08"/>
<circle cx="2" cy="2" r="2" transform="matrix(-1 0 0 1 173 595)" fill="white" fill-opacity="0.08"/>
<circle cx="2" cy="2" r="2" transform="matrix(-1 0 0 1 173 595)" fill="white" fill-opacity="0.08"/>
<circle cx="2" cy="2" r="2" transform="matrix(-1 0 0 1 303 180)" fill="white" fill-opacity="0.08"/>
<circle cx="2" cy="2" r="2" transform="matrix(-1 0 0 1 63 43)" fill="white" fill-opacity="0.08"/>
<circle cx="2" cy="2" r="2" transform="matrix(-1 0 0 1 133 273)" fill="white" fill-opacity="0.08"/>
<circle cx="2" cy="2" r="2" transform="matrix(-1 0 0 1 819 401)" fill="white" fill-opacity="0.08"/>
<circle cx="2" cy="2" r="2" transform="matrix(-1 0 0 1 959 545)" fill="white" fill-opacity="0.08"/>
<circle cx="2" cy="2" r="2" transform="matrix(-1 0 0 1 1184 605)" fill="white" fill-opacity="0.08"/>
<circle cx="2" cy="2" r="2" transform="matrix(-1 0 0 1 961 327)" fill="white" fill-opacity="0.08"/>
<circle cx="2" cy="2" r="2" transform="matrix(-1 0 0 1 963 105)" fill="white" fill-opacity="0.08"/>
<circle cx="2" cy="2" r="2" transform="matrix(-1 0 0 1 1222 4)" fill="white" fill-opacity="0.08"/>
<circle cx="2" cy="2" r="2" transform="matrix(-1 0 0 1 1261 249)" fill="white" fill-opacity="0.08"/>
<circle cx="2" cy="2" r="2" transform="matrix(-1 0 0 1 507 103)" fill="white" fill-opacity="0.08"/>
<circle cx="2" cy="2" r="2" transform="matrix(-1 0 0 1 778 159)" fill="white" fill-opacity="0.08"/>
<circle cx="2" cy="2" r="2" transform="matrix(-1 0 0 1 310 467)" fill="white" fill-opacity="0.24"/>
<circle cx="2" cy="2" r="2" transform="matrix(-1 0 0 1 20 603)" fill="white" fill-opacity="0.24"/>
<circle cx="2" cy="2" r="2" transform="matrix(-1 0 0 1 493 293)" fill="white"/>
<circle cx="2" cy="2" r="2" transform="matrix(-1 0 0 1 115 419)" fill="white" fill-opacity="0.08"/>
<circle cx="2" cy="2" r="2" transform="matrix(-1 0 0 1 620 427)" fill="white" fill-opacity="0.24"/>
<circle cx="2" cy="2" r="2" transform="matrix(-1 0 0 1 402 599)" fill="white"/>
<circle cx="2" cy="2" r="2" transform="matrix(-1 0 0 1 135 109)" fill="white"/>
<circle cx="2" cy="2" r="2" transform="matrix(-1 0 0 1 260 266)" fill="white"/>
<circle cx="2" cy="2" r="2" transform="matrix(-1 0 0 1 4 245)" fill="white" fill-opacity="0.24"/>
<circle cx="2" cy="2" r="2" transform="matrix(-1 0 0 1 747 561)" fill="white" fill-opacity="0.24"/>
<circle cx="2" cy="2" r="2" transform="matrix(-1 0 0 1 887 231)" fill="white" fill-opacity="0.24"/>
<circle cx="2" cy="2" r="2" transform="matrix(-1 0 0 1 1128 269)" fill="white"/>
<circle cx="2" cy="2" r="2" transform="matrix(-1 0 0 1 1160 463)" fill="white" fill-opacity="0.08"/>
<circle cx="2" cy="2" r="2" transform="matrix(-1 0 0 1 1132 121)" fill="white" fill-opacity="0.24"/>
<circle cx="2" cy="2" r="2" transform="matrix(-1 0 0 1 705 293)" fill="white"/>
<circle cx="2" cy="2" r="2" transform="matrix(-1 0 0 1 503 0)" fill="white"/>
<circle cx="2" cy="2" r="2" transform="matrix(-1 0 0 1 838 19)" fill="white" fill-opacity="0.08"/>
</svg>
