<svg width="48" height="50" viewBox="0 0 48 50" fill="none" xmlns="http://www.w3.org/2000/svg">
<rect x="16" y="44" width="16" height="6" rx="3" fill="#FF409D"/>
<rect x="0.75" y="0.75" width="46.5" height="46.5" rx="11.25" fill="#090A23" stroke="#14162E" stroke-width="1.5"/>
<path d="M25.4391 29.9997V28.4337L30.4431 23.6817C30.8631 23.2857 31.1751 22.9377 31.3791 22.6377C31.5831 22.3377 31.7151 22.0617 31.7751 21.8097C31.8471 21.5457 31.8831 21.2997 31.8831 21.0717C31.8831 20.4957 31.6851 20.0517 31.2891 19.7397C30.8931 19.4157 30.3111 19.2537 29.5431 19.2537C28.9311 19.2537 28.3731 19.3617 27.8691 19.5777C27.3771 19.7937 26.9511 20.1237 26.5911 20.5677L24.9531 19.3077C25.4451 18.6477 26.1051 18.1377 26.9331 17.7777C27.7731 17.4057 28.7091 17.2197 29.7411 17.2197C30.6531 17.2197 31.4451 17.3697 32.1171 17.6697C32.8011 17.9577 33.3231 18.3717 33.6831 18.9117C34.0551 19.4517 34.2411 20.0937 34.2411 20.8377C34.2411 21.2457 34.1871 21.6537 34.0791 22.0617C33.9711 22.4577 33.7671 22.8777 33.4671 23.3217C33.1671 23.7657 32.7291 24.2637 32.1531 24.8157L27.8511 28.9017L27.3651 28.0197H34.7271V29.9997H25.4391Z" fill="url(#paint0_radial_11021_14458)"/>
<path d="M18.7638 30.1797C17.7678 30.1797 16.8678 29.9277 16.0638 29.4237C15.2718 28.9197 14.6478 28.1877 14.1918 27.2277C13.7358 26.2557 13.5078 25.0797 13.5078 23.6997C13.5078 22.3197 13.7358 21.1497 14.1918 20.1897C14.6478 19.2177 15.2718 18.4797 16.0638 17.9757C16.8678 17.4717 17.7678 17.2197 18.7638 17.2197C19.7718 17.2197 20.6718 17.4717 21.4638 17.9757C22.2558 18.4797 22.8798 19.2177 23.3358 20.1897C23.8038 21.1497 24.0378 22.3197 24.0378 23.6997C24.0378 25.0797 23.8038 26.2557 23.3358 27.2277C22.8798 28.1877 22.2558 28.9197 21.4638 29.4237C20.6718 29.9277 19.7718 30.1797 18.7638 30.1797ZM18.7638 28.1457C19.3518 28.1457 19.8618 27.9897 20.2938 27.6777C20.7258 27.3537 21.0618 26.8617 21.3018 26.2017C21.5538 25.5417 21.6798 24.7077 21.6798 23.6997C21.6798 22.6797 21.5538 21.8457 21.3018 21.1977C21.0618 20.5377 20.7258 20.0517 20.2938 19.7397C19.8618 19.4157 19.3518 19.2537 18.7638 19.2537C18.1998 19.2537 17.6958 19.4157 17.2518 19.7397C16.8198 20.0517 16.4778 20.5377 16.2258 21.1977C15.9858 21.8457 15.8658 22.6797 15.8658 23.6997C15.8658 24.7077 15.9858 25.5417 16.2258 26.2017C16.4778 26.8617 16.8198 27.3537 17.2518 27.6777C17.6958 27.9897 18.1998 28.1457 18.7638 28.1457Z" fill="url(#paint1_radial_11021_14458)"/>
<defs>
<radialGradient id="paint0_radial_11021_14458" cx="0" cy="0" r="1" gradientUnits="userSpaceOnUse" gradientTransform="translate(29.8401 23.6097) rotate(90) scale(6.39 4.887)">
<stop stop-color="white"/>
<stop offset="1" stop-color="#CDDFF2"/>
</radialGradient>
<radialGradient id="paint1_radial_11021_14458" cx="0" cy="0" r="1" gradientUnits="userSpaceOnUse" gradientTransform="translate(18.7728 23.6997) rotate(90) scale(6.48 5.265)">
<stop stop-color="white"/>
<stop offset="1" stop-color="#CDDFF2"/>
</radialGradient>
</defs>
</svg>
