<svg width="48" height="50" viewBox="0 0 48 50" fill="none" xmlns="http://www.w3.org/2000/svg">
<rect x="16" y="44" width="16" height="6" rx="3" fill="#FF409D"/>
<rect x="0.75" y="0.75" width="46.5" height="46.5" rx="11.25" fill="#090A23" stroke="#14162E" stroke-width="1.5"/>
<path d="M27.4331 29.9994L32.6351 18.3354L33.2471 19.3794H26.1011L27.2171 18.2454V21.5214H25.0391V17.3994H34.8311V18.9654L29.9351 29.9994H27.4331Z" fill="url(#paint0_radial_11021_14478)"/>
<path d="M18.5607 30.1797C17.5647 30.1797 16.6647 29.9277 15.8607 29.4237C15.0687 28.9197 14.4447 28.1877 13.9887 27.2277C13.5327 26.2557 13.3047 25.0797 13.3047 23.6997C13.3047 22.3197 13.5327 21.1497 13.9887 20.1897C14.4447 19.2177 15.0687 18.4797 15.8607 17.9757C16.6647 17.4717 17.5647 17.2197 18.5607 17.2197C19.5687 17.2197 20.4687 17.4717 21.2607 17.9757C22.0527 18.4797 22.6767 19.2177 23.1327 20.1897C23.6007 21.1497 23.8347 22.3197 23.8347 23.6997C23.8347 25.0797 23.6007 26.2557 23.1327 27.2277C22.6767 28.1877 22.0527 28.9197 21.2607 29.4237C20.4687 29.9277 19.5687 30.1797 18.5607 30.1797ZM18.5607 28.1457C19.1487 28.1457 19.6587 27.9897 20.0907 27.6777C20.5227 27.3537 20.8587 26.8617 21.0987 26.2017C21.3507 25.5417 21.4767 24.7077 21.4767 23.6997C21.4767 22.6797 21.3507 21.8457 21.0987 21.1977C20.8587 20.5377 20.5227 20.0517 20.0907 19.7397C19.6587 19.4157 19.1487 19.2537 18.5607 19.2537C17.9967 19.2537 17.4927 19.4157 17.0487 19.7397C16.6167 20.0517 16.2747 20.5377 16.0227 21.1977C15.7827 21.8457 15.6627 22.6797 15.6627 23.6997C15.6627 24.7077 15.7827 25.5417 16.0227 26.2017C16.2747 26.8617 16.6167 27.3537 17.0487 27.6777C17.4927 27.9897 17.9967 28.1457 18.5607 28.1457Z" fill="url(#paint1_radial_11021_14478)"/>
<defs>
<radialGradient id="paint0_radial_11021_14478" cx="0" cy="0" r="1" gradientUnits="userSpaceOnUse" gradientTransform="translate(29.9351 23.6994) rotate(90) scale(6.3 4.896)">
<stop stop-color="white"/>
<stop offset="1" stop-color="#CDDFF2"/>
</radialGradient>
<radialGradient id="paint1_radial_11021_14478" cx="0" cy="0" r="1" gradientUnits="userSpaceOnUse" gradientTransform="translate(18.5697 23.6997) rotate(90) scale(6.48 5.265)">
<stop stop-color="white"/>
<stop offset="1" stop-color="#CDDFF2"/>
</radialGradient>
</defs>
</svg>
