<svg width="48" height="50" viewBox="0 0 48 50" fill="none" xmlns="http://www.w3.org/2000/svg">
<rect x="16" y="44" width="16" height="6" rx="3" fill="#FF409D"/>
<rect x="0.75" y="0.75" width="46.5" height="46.5" rx="11.25" fill="#090A23" stroke="#14162E" stroke-width="1.5"/>
<path d="M28.9518 17.2197C30.1038 17.2197 31.0818 17.4657 31.8858 17.9577C32.7018 18.4377 33.3258 19.1397 33.7578 20.0637C34.1897 20.9877 34.4057 22.1277 34.4057 23.4837C34.4057 24.9237 34.1417 26.1417 33.6137 27.1377C33.0977 28.1337 32.3777 28.8897 31.4537 29.4057C30.5297 29.9217 29.4557 30.1797 28.2317 30.1797C27.5957 30.1797 26.9897 30.1137 26.4137 29.9817C25.8377 29.8497 25.3398 29.6457 24.9198 29.3697L25.7837 27.6057C26.1317 27.8337 26.5098 27.9957 26.9178 28.0917C27.3258 28.1757 27.7458 28.2177 28.1778 28.2177C29.3658 28.2177 30.3078 27.8517 31.0038 27.1197C31.6998 26.3877 32.0477 25.3077 32.0477 23.8797C32.0477 23.6517 32.0417 23.3877 32.0297 23.0877C32.0177 22.7757 31.9758 22.4637 31.9038 22.1517L32.6237 22.9437C32.4197 23.4357 32.1257 23.8497 31.7417 24.1857C31.3577 24.5097 30.9077 24.7557 30.3917 24.9237C29.8757 25.0917 29.3058 25.1757 28.6818 25.1757C27.8658 25.1757 27.1277 25.0197 26.4677 24.7077C25.8197 24.3837 25.3038 23.9337 24.9198 23.3577C24.5358 22.7697 24.3438 22.0857 24.3438 21.3057C24.3438 20.4657 24.5477 19.7457 24.9557 19.1457C25.3637 18.5337 25.9157 18.0597 26.6117 17.7237C27.3197 17.3877 28.0998 17.2197 28.9518 17.2197ZM29.0778 19.0557C28.5978 19.0557 28.1718 19.1457 27.7998 19.3257C27.4278 19.4937 27.1338 19.7397 26.9178 20.0637C26.7138 20.3757 26.6117 20.7537 26.6117 21.1977C26.6117 21.8577 26.8397 22.3797 27.2957 22.7637C27.7517 23.1477 28.3638 23.3397 29.1318 23.3397C29.6358 23.3397 30.0797 23.2497 30.4637 23.0697C30.8477 22.8777 31.1477 22.6197 31.3637 22.2957C31.5797 21.9597 31.6878 21.5877 31.6878 21.1797C31.6878 20.7837 31.5858 20.4297 31.3818 20.1177C31.1778 19.7937 30.8838 19.5357 30.4998 19.3437C30.1158 19.1517 29.6418 19.0557 29.0778 19.0557Z" fill="url(#paint0_radial_11021_14486)"/>
<path d="M17.8498 30.1797C16.8538 30.1797 15.9538 29.9277 15.1497 29.4237C14.3577 28.9197 13.7338 28.1877 13.2778 27.2277C12.8218 26.2557 12.5938 25.0797 12.5938 23.6997C12.5938 22.3197 12.8218 21.1497 13.2778 20.1897C13.7338 19.2177 14.3577 18.4797 15.1497 17.9757C15.9538 17.4717 16.8538 17.2197 17.8498 17.2197C18.8578 17.2197 19.7578 17.4717 20.5498 17.9757C21.3418 18.4797 21.9658 19.2177 22.4218 20.1897C22.8898 21.1497 23.1238 22.3197 23.1238 23.6997C23.1238 25.0797 22.8898 26.2557 22.4218 27.2277C21.9658 28.1877 21.3418 28.9197 20.5498 29.4237C19.7578 29.9277 18.8578 30.1797 17.8498 30.1797ZM17.8498 28.1457C18.4378 28.1457 18.9478 27.9897 19.3798 27.6777C19.8118 27.3537 20.1478 26.8617 20.3878 26.2017C20.6398 25.5417 20.7658 24.7077 20.7658 23.6997C20.7658 22.6797 20.6398 21.8457 20.3878 21.1977C20.1478 20.5377 19.8118 20.0517 19.3798 19.7397C18.9478 19.4157 18.4378 19.2537 17.8498 19.2537C17.2858 19.2537 16.7818 19.4157 16.3378 19.7397C15.9058 20.0517 15.5638 20.5377 15.3118 21.1977C15.0718 21.8457 14.9518 22.6797 14.9518 23.6997C14.9518 24.7077 15.0718 25.5417 15.3118 26.2017C15.5638 26.8617 15.9058 27.3537 16.3378 27.6777C16.7818 27.9897 17.2858 28.1457 17.8498 28.1457Z" fill="url(#paint1_radial_11021_14486)"/>
<defs>
<radialGradient id="paint0_radial_11021_14486" cx="0" cy="0" r="1" gradientUnits="userSpaceOnUse" gradientTransform="translate(29.3747 23.6997) rotate(90) scale(6.48 5.031)">
<stop stop-color="white"/>
<stop offset="1" stop-color="#CDDFF2"/>
</radialGradient>
<radialGradient id="paint1_radial_11021_14486" cx="0" cy="0" r="1" gradientUnits="userSpaceOnUse" gradientTransform="translate(17.8588 23.6997) rotate(90) scale(6.48 5.265)">
<stop stop-color="white"/>
<stop offset="1" stop-color="#CDDFF2"/>
</radialGradient>
</defs>
</svg>
