<svg width="48" height="50" viewBox="0 0 48 50" fill="none" xmlns="http://www.w3.org/2000/svg">
<rect x="16" y="44" width="16" height="6" rx="3" fill="#FF409D"/>
<rect x="0.75" y="0.75" width="46.5" height="46.5" rx="11.25" fill="#090A23" stroke="#14162E" stroke-width="1.5"/>
<path d="M29.4257 29.9994V18.2994L30.4517 19.3614H26.7617V17.3994H31.7657V29.9994H29.4257Z" fill="url(#paint0_radial_11008_21084)"/>
<path d="M20.5724 30.1797C19.5764 30.1797 18.6764 29.9277 17.8724 29.4237C17.0804 28.9197 16.4564 28.1877 16.0004 27.2277C15.5444 26.2557 15.3164 25.0797 15.3164 23.6997C15.3164 22.3197 15.5444 21.1497 16.0004 20.1897C16.4564 19.2177 17.0804 18.4797 17.8724 17.9757C18.6764 17.4717 19.5764 17.2197 20.5724 17.2197C21.5804 17.2197 22.4804 17.4717 23.2724 17.9757C24.0644 18.4797 24.6884 19.2177 25.1444 20.1897C25.6124 21.1497 25.8464 22.3197 25.8464 23.6997C25.8464 25.0797 25.6124 26.2557 25.1444 27.2277C24.6884 28.1877 24.0644 28.9197 23.2724 29.4237C22.4804 29.9277 21.5804 30.1797 20.5724 30.1797ZM20.5724 28.1457C21.1604 28.1457 21.6704 27.9897 22.1024 27.6777C22.5344 27.3537 22.8704 26.8617 23.1104 26.2017C23.3624 25.5417 23.4884 24.7077 23.4884 23.6997C23.4884 22.6797 23.3624 21.8457 23.1104 21.1977C22.8704 20.5377 22.5344 20.0517 22.1024 19.7397C21.6704 19.4157 21.1604 19.2537 20.5724 19.2537C20.0084 19.2537 19.5044 19.4157 19.0604 19.7397C18.6284 20.0517 18.2864 20.5377 18.0344 21.1977C17.7944 21.8457 17.6744 22.6797 17.6744 23.6997C17.6744 24.7077 17.7944 25.5417 18.0344 26.2017C18.2864 26.8617 18.6284 27.3537 19.0604 27.6777C19.5044 27.9897 20.0084 28.1457 20.5724 28.1457Z" fill="url(#paint1_radial_11008_21084)"/>
<defs>
<radialGradient id="paint0_radial_11008_21084" cx="0" cy="0" r="1" gradientUnits="userSpaceOnUse" gradientTransform="translate(29.2637 23.6994) rotate(90) scale(6.3 2.502)">
<stop stop-color="white"/>
<stop offset="1" stop-color="#CDDFF2"/>
</radialGradient>
<radialGradient id="paint1_radial_11008_21084" cx="0" cy="0" r="1" gradientUnits="userSpaceOnUse" gradientTransform="translate(20.5814 23.6997) rotate(90) scale(6.48 5.265)">
<stop stop-color="white"/>
<stop offset="1" stop-color="#CDDFF2"/>
</radialGradient>
</defs>
</svg>
