<svg width="336" height="24" viewBox="0 0 336 24" fill="none" xmlns="http://www.w3.org/2000/svg">
<rect x="24.72" y="0.72" width="22.56" height="22.56" rx="6.48" fill="url(#paint0_linear_11028_14542)"/>
<rect x="24.72" y="0.72" width="22.56" height="22.56" rx="6.48" stroke="url(#paint1_linear_11028_14542)" stroke-width="1.44"/>
<path d="M36.0125 16.1037C35.7206 16.1037 35.4979 16.023 35.3443 15.8618C35.1907 15.7005 35.1139 15.4739 35.1139 15.1821V9.35296H33.0749C32.8368 9.35296 32.6525 9.28768 32.5219 9.15712C32.3913 9.02656 32.3261 8.84608 32.3261 8.61568C32.3261 8.3776 32.3913 8.19712 32.5219 8.07424C32.6525 7.94368 32.8368 7.8784 33.0749 7.8784H38.9385C39.1766 7.8784 39.3609 7.94368 39.4915 8.07424C39.6221 8.19712 39.6873 8.3776 39.6873 8.61568C39.6873 8.84608 39.6221 9.02656 39.4915 9.15712C39.3609 9.28768 39.1766 9.35296 38.9385 9.35296H36.8995V15.1821C36.8995 15.4739 36.8227 15.7005 36.6691 15.8618C36.5232 16.023 36.3043 16.1037 36.0125 16.1037Z" fill="#A3A3AE"/>
<rect x="72.72" y="0.72" width="22.56" height="22.56" rx="6.48" fill="url(#paint2_linear_11028_14542)"/>
<rect x="72.72" y="0.72" width="22.56" height="22.56" rx="6.48" stroke="url(#paint3_linear_11028_14542)" stroke-width="1.44"/>
<path d="M84.0163 16.1267C83.4403 16.1267 82.9296 16.0538 82.4842 15.9078C82.0464 15.7542 81.6778 15.5315 81.3783 15.2397C81.0787 14.9478 80.8522 14.583 80.6986 14.1453C80.5527 13.6998 80.4797 13.1853 80.4797 12.6016V8.6848C80.4797 8.38528 80.5565 8.15872 80.7101 8.00512C80.8637 7.85152 81.0864 7.77472 81.3783 7.77472C81.6624 7.77472 81.8813 7.85152 82.0349 8.00512C82.1885 8.15872 82.2653 8.38528 82.2653 8.6848V12.6131C82.2653 13.2736 82.4151 13.7728 82.7146 14.1107C83.0141 14.441 83.448 14.6061 84.0163 14.6061C84.5847 14.6061 85.0147 14.441 85.3066 14.1107C85.6061 13.7728 85.7559 13.2736 85.7559 12.6131V8.6848C85.7559 8.38528 85.8327 8.15872 85.9863 8.00512C86.1399 7.85152 86.3587 7.77472 86.6429 7.77472C86.9271 7.77472 87.1421 7.85152 87.288 8.00512C87.4416 8.15872 87.5184 8.38528 87.5184 8.6848V12.6016C87.5184 13.3773 87.384 14.0301 87.1152 14.56C86.8541 15.0822 86.4624 15.4739 85.9402 15.735C85.4256 15.9962 84.7843 16.1267 84.0163 16.1267Z" fill="#A3A3AE"/>
<rect x="120.72" y="0.72" width="22.56" height="22.56" rx="6.48" fill="url(#paint4_linear_11028_14542)"/>
<rect x="120.72" y="0.72" width="22.56" height="22.56" rx="6.48" stroke="url(#paint5_linear_11028_14542)" stroke-width="1.44"/>
<path d="M132.008 16.1037C131.763 16.1037 131.559 16.0499 131.398 15.9424C131.244 15.8272 131.117 15.6544 131.018 15.424L128.115 8.9728C128.007 8.7424 127.976 8.53888 128.022 8.36224C128.068 8.17792 128.164 8.03584 128.31 7.936C128.456 7.82848 128.633 7.77472 128.84 7.77472C129.101 7.77472 129.301 7.83616 129.439 7.95904C129.578 8.07424 129.693 8.24704 129.785 8.47744L132.331 14.3642H131.755L134.301 8.46592C134.401 8.23552 134.52 8.06272 134.658 7.94752C134.796 7.83232 134.988 7.77472 135.234 7.77472C135.441 7.77472 135.61 7.82848 135.741 7.936C135.879 8.03584 135.963 8.17792 135.994 8.36224C136.033 8.53888 136.002 8.7424 135.902 8.9728L132.999 15.424C132.891 15.6544 132.761 15.8272 132.607 15.9424C132.461 16.0499 132.262 16.1037 132.008 16.1037Z" fill="#A3A3AE"/>
<rect x="168.72" y="0.72" width="22.56" height="22.56" rx="6.48" fill="url(#paint6_linear_11028_14542)"/>
<rect x="168.72" y="0.72" width="22.56" height="22.56" rx="6.48" stroke="url(#paint7_linear_11028_14542)" stroke-width="1.44"/>
<path d="M177.373 16.1037C177.127 16.1037 176.927 16.0461 176.774 15.9309C176.62 15.808 176.497 15.6237 176.405 15.3779L174.078 8.83456C173.978 8.54272 173.997 8.29312 174.136 8.08576C174.282 7.8784 174.531 7.77472 174.884 7.77472C175.13 7.77472 175.318 7.83232 175.449 7.94752C175.587 8.06272 175.699 8.2432 175.783 8.48896L177.684 14.1453H177.188L179.193 8.50048C179.285 8.25472 179.396 8.07424 179.527 7.95904C179.665 7.83616 179.846 7.77472 180.068 7.77472C180.283 7.77472 180.456 7.83616 180.587 7.95904C180.717 8.07424 180.829 8.25856 180.921 8.512L182.833 14.1453H182.407L184.342 8.48896C184.419 8.25088 184.527 8.07424 184.665 7.95904C184.803 7.83616 184.991 7.77472 185.229 7.77472C185.529 7.77472 185.748 7.8784 185.886 8.08576C186.024 8.29312 186.04 8.54272 185.932 8.83456L183.582 15.3894C183.498 15.6275 183.382 15.808 183.236 15.9309C183.091 16.0461 182.891 16.1037 182.637 16.1037C182.392 16.1037 182.196 16.0461 182.05 15.9309C181.904 15.808 181.785 15.6237 181.693 15.3779L179.873 10.2285H180.149L178.306 15.3894C178.214 15.6275 178.095 15.808 177.949 15.9309C177.811 16.0461 177.619 16.1037 177.373 16.1037Z" fill="#A3A3AE"/>
<rect x="216.72" y="0.72" width="22.56" height="22.56" rx="6.48" fill="url(#paint8_linear_11028_14542)"/>
<rect x="216.72" y="0.72" width="22.56" height="22.56" rx="6.48" stroke="url(#paint9_linear_11028_14542)" stroke-width="1.44"/>
<path d="M225.382 16.1037C225.151 16.1037 224.959 16.0422 224.806 15.9194C224.66 15.7888 224.575 15.6314 224.552 15.447C224.529 15.255 224.591 15.0592 224.737 14.8595L227.282 11.4842V12.279L224.84 9.0304C224.694 8.82304 224.629 8.6272 224.644 8.44288C224.667 8.25088 224.752 8.09344 224.898 7.97056C225.051 7.84 225.24 7.77472 225.462 7.77472C225.654 7.77472 225.819 7.8208 225.958 7.91296C226.104 8.00512 226.25 8.15104 226.395 8.35072L228.296 10.9773H227.72L229.61 8.35072C229.755 8.14336 229.901 7.99744 230.047 7.91296C230.193 7.8208 230.362 7.77472 230.554 7.77472C230.785 7.77472 230.973 7.83616 231.119 7.95904C231.272 8.08192 231.357 8.23936 231.372 8.43136C231.395 8.61568 231.33 8.81536 231.176 9.0304L228.722 12.279V11.4842L231.257 14.8595C231.41 15.0592 231.476 15.255 231.453 15.447C231.437 15.6314 231.353 15.7888 231.199 15.9194C231.053 16.0422 230.861 16.1037 230.623 16.1037C230.439 16.1037 230.274 16.0576 230.128 15.9654C229.99 15.8733 229.844 15.7235 229.69 15.5162L227.709 12.7859H228.296L226.315 15.5162C226.169 15.7235 226.023 15.8733 225.877 15.9654C225.731 16.0576 225.566 16.1037 225.382 16.1037Z" fill="#A3A3AE"/>
<rect x="264.72" y="0.72" width="22.56" height="22.56" rx="6.48" fill="url(#paint10_linear_11028_14542)"/>
<rect x="264.72" y="0.72" width="22.56" height="22.56" rx="6.48" stroke="url(#paint11_linear_11028_14542)" stroke-width="1.44"/>
<path d="M276.007 16.1037C275.715 16.1037 275.492 16.023 275.338 15.8618C275.185 15.7005 275.108 15.4701 275.108 15.1706L275.108 11.8298L275.477 12.855L272.758 8.99584C272.65 8.83456 272.604 8.66176 272.62 8.47744C272.635 8.28544 272.712 8.12032 272.85 7.98208C272.988 7.84384 273.184 7.77472 273.438 7.77472C273.622 7.77472 273.787 7.8208 273.933 7.91296C274.087 8.00512 274.232 8.15104 274.371 8.35072L276.214 11.0118H275.845L277.688 8.35072C277.834 8.14336 277.976 7.99744 278.115 7.91296C278.261 7.8208 278.43 7.77472 278.622 7.77472C278.867 7.77472 279.059 7.84 279.198 7.97056C279.336 8.09344 279.409 8.25088 279.416 8.44288C279.424 8.6272 279.359 8.8192 279.221 9.01888L276.536 12.855L276.894 11.8298V15.1706C276.894 15.7926 276.598 16.1037 276.007 16.1037Z" fill="#A3A3AE"/>
<rect x="312.72" y="0.72" width="22.56" height="22.56" rx="6.48" fill="url(#paint12_linear_11028_14542)"/>
<rect x="312.72" y="0.72" width="22.56" height="22.56" rx="6.48" stroke="url(#paint13_linear_11028_14542)" stroke-width="1.44"/>
<path d="M321.804 16C321.574 16 321.386 15.9539 321.24 15.8618C321.094 15.7619 320.994 15.6314 320.94 15.4701C320.894 15.3011 320.894 15.1168 320.94 14.9171C320.994 14.7174 321.101 14.5178 321.263 14.3181L325.456 8.82304V9.36448H321.666C321.412 9.36448 321.217 9.2992 321.078 9.16864C320.948 9.03808 320.882 8.85376 320.882 8.61568C320.882 8.3776 320.948 8.19712 321.078 8.07424C321.217 7.94368 321.412 7.8784 321.666 7.8784H326.297C326.535 7.8784 326.723 7.92832 326.861 8.02816C327.007 8.12032 327.107 8.24704 327.161 8.40832C327.215 8.5696 327.215 8.75392 327.161 8.96128C327.107 9.16096 327 9.36064 326.838 9.56032L322.645 15.0438V14.5139H326.619C326.873 14.5139 327.065 14.5792 327.195 14.7098C327.334 14.8326 327.403 15.0131 327.403 15.2512C327.403 15.497 327.334 15.6851 327.195 15.8157C327.065 15.9386 326.873 16 326.619 16H321.804Z" fill="#A3A3AE"/>
<rect width="336" height="24" fill="url(#paint14_linear_11028_14542)"/>
<defs>
<linearGradient id="paint0_linear_11028_14542" x1="24" y1="0" x2="48" y2="24" gradientUnits="userSpaceOnUse">
<stop stop-color="#2D3047"/>
<stop offset="1" stop-color="#48495F"/>
</linearGradient>
<linearGradient id="paint1_linear_11028_14542" x1="24" y1="0" x2="48" y2="24" gradientUnits="userSpaceOnUse">
<stop stop-color="#48495F"/>
<stop offset="1" stop-color="#2D3047"/>
</linearGradient>
<linearGradient id="paint2_linear_11028_14542" x1="72" y1="0" x2="96" y2="24" gradientUnits="userSpaceOnUse">
<stop stop-color="#2D3047"/>
<stop offset="1" stop-color="#48495F"/>
</linearGradient>
<linearGradient id="paint3_linear_11028_14542" x1="72" y1="0" x2="96" y2="24" gradientUnits="userSpaceOnUse">
<stop stop-color="#48495F"/>
<stop offset="1" stop-color="#2D3047"/>
</linearGradient>
<linearGradient id="paint4_linear_11028_14542" x1="120" y1="0" x2="144" y2="24" gradientUnits="userSpaceOnUse">
<stop stop-color="#2D3047"/>
<stop offset="1" stop-color="#48495F"/>
</linearGradient>
<linearGradient id="paint5_linear_11028_14542" x1="120" y1="0" x2="144" y2="24" gradientUnits="userSpaceOnUse">
<stop stop-color="#48495F"/>
<stop offset="1" stop-color="#2D3047"/>
</linearGradient>
<linearGradient id="paint6_linear_11028_14542" x1="168" y1="0" x2="192" y2="24" gradientUnits="userSpaceOnUse">
<stop stop-color="#2D3047"/>
<stop offset="1" stop-color="#48495F"/>
</linearGradient>
<linearGradient id="paint7_linear_11028_14542" x1="168" y1="0" x2="192" y2="24" gradientUnits="userSpaceOnUse">
<stop stop-color="#48495F"/>
<stop offset="1" stop-color="#2D3047"/>
</linearGradient>
<linearGradient id="paint8_linear_11028_14542" x1="216" y1="0" x2="240" y2="24" gradientUnits="userSpaceOnUse">
<stop stop-color="#2D3047"/>
<stop offset="1" stop-color="#48495F"/>
</linearGradient>
<linearGradient id="paint9_linear_11028_14542" x1="216" y1="0" x2="240" y2="24" gradientUnits="userSpaceOnUse">
<stop stop-color="#48495F"/>
<stop offset="1" stop-color="#2D3047"/>
</linearGradient>
<linearGradient id="paint10_linear_11028_14542" x1="264" y1="0" x2="288" y2="24" gradientUnits="userSpaceOnUse">
<stop stop-color="#2D3047"/>
<stop offset="1" stop-color="#48495F"/>
</linearGradient>
<linearGradient id="paint11_linear_11028_14542" x1="264" y1="0" x2="288" y2="24" gradientUnits="userSpaceOnUse">
<stop stop-color="#48495F"/>
<stop offset="1" stop-color="#2D3047"/>
</linearGradient>
<linearGradient id="paint12_linear_11028_14542" x1="312" y1="0" x2="336" y2="24" gradientUnits="userSpaceOnUse">
<stop stop-color="#2D3047"/>
<stop offset="1" stop-color="#48495F"/>
</linearGradient>
<linearGradient id="paint13_linear_11028_14542" x1="312" y1="0" x2="336" y2="24" gradientUnits="userSpaceOnUse">
<stop stop-color="#48495F"/>
<stop offset="1" stop-color="#2D3047"/>
</linearGradient>
<linearGradient id="paint14_linear_11028_14542" x1="0" y1="12" x2="336" y2="12" gradientUnits="userSpaceOnUse">
<stop stop-color="#070720"/>
<stop offset="0.5" stop-color="#070720" stop-opacity="0"/>
<stop offset="1" stop-color="#070720"/>
</linearGradient>
</defs>
</svg>
