<svg xmlns="http://www.w3.org/2000/svg" width="98" height="56" viewBox="0 0 98 56" fill="none">
<path d="M49.6088 21.6249C52.3621 21.6249 55.003 22.1689 57.452 23.167C57.8954 23.3477 58.4084 23.1978 58.6792 22.8029C63.6144 15.6059 71.3356 10.9734 80.0139 10.9734C81.511 10.9734 82.9796 11.1113 84.4103 11.3764C84.9001 11.4671 85.3864 11.1892 85.5623 10.7233C87.7111 5.03345 92.3896 0.856848 98 0V56H0C0.757258 46.4995 7.81964 39.0545 16.4201 39.0545C19.7464 39.0545 22.8427 40.1682 25.4331 42.0837C26.055 42.5436 26.9969 42.2109 27.1626 41.4554C29.6608 30.0665 38.7628 21.6249 49.6088 21.6249Z" fill="white" fill-opacity="0.02"/>
</svg>