<svg width="72" height="74" viewBox="0 0 72 74" fill="none" xmlns="http://www.w3.org/2000/svg">
<path d="M36 72.2427C55.9501 72.2427 72 56.1928 72 36.2427C72 16.2926 55.9501 0.242676 36 0.242676C16.0499 0.242676 0 16.2926 0 36.2427C0 56.1928 16.0499 72.2427 36 72.2427Z" fill="#2775CA"/>
<path d="M45.9007 41.942C45.9007 36.6921 42.7507 34.8921 36.4507 34.1422C31.9507 33.5421 31.0507 32.3422 31.0507 30.242C31.0507 28.1418 32.5508 26.7921 35.5507 26.7921C38.2507 26.7921 39.7508 27.6921 40.5007 29.9421C40.6508 30.3921 41.1008 30.692 41.5508 30.692H43.9505C44.5507 30.692 45.0007 30.242 45.0007 29.6422V29.4921C44.4005 26.192 41.7005 23.6421 38.2507 23.3422V19.7422C38.2507 19.1421 37.8007 18.6921 37.0508 18.542H34.8008C34.2007 18.542 33.7507 18.992 33.6005 19.7422V23.1921C29.1005 23.7922 26.2508 26.7921 26.2508 30.5422C26.2508 35.4922 29.2507 37.442 35.5507 38.1922C39.7508 38.9421 41.1008 39.8421 41.1008 42.2422C41.1008 44.6424 39.0005 46.2922 36.1508 46.2922C32.2505 46.2922 30.9005 44.642 30.4505 42.392C30.3008 41.7922 29.8508 41.492 29.4008 41.492H26.8505C26.2508 41.492 25.8008 41.942 25.8008 42.5421V42.6922C26.4005 46.442 28.8007 49.142 33.7507 49.8922V53.4922C33.7507 54.092 34.2007 54.542 34.9505 54.6921H37.2005C37.8007 54.6921 38.2507 54.2421 38.4008 53.4922V49.8922C42.9008 49.142 45.9007 45.992 45.9007 41.942Z" fill="white"/>
<path d="M28.351 57.6924C16.651 53.4927 10.6509 40.4427 15.0011 28.8924C17.2511 22.5924 22.2011 17.7926 28.351 15.5426C28.9511 15.2427 29.251 14.7927 29.251 14.0424V11.9426C29.251 11.3424 28.9511 10.8924 28.351 10.7427C28.2009 10.7427 27.901 10.7427 27.7509 10.8924C13.501 15.3924 5.70085 30.5427 10.2009 44.7926C12.9009 53.1924 19.351 59.6426 27.7509 62.3426C28.351 62.6424 28.9511 62.3426 29.1009 61.7424C29.251 61.5927 29.251 61.4426 29.251 61.1427V59.0424C29.251 58.5924 28.801 57.9927 28.351 57.6924ZM44.2511 10.8924C43.651 10.5926 43.0509 10.8924 42.9011 11.4926C42.751 11.6427 42.751 11.7924 42.751 12.0927V14.1926C42.751 14.7927 43.201 15.3924 43.651 15.6927C55.351 19.8924 61.3511 32.9424 57.0009 44.4927C54.7509 50.7927 49.8009 55.5926 43.651 57.8426C43.0509 58.1424 42.751 58.5924 42.751 59.3427V61.4426C42.751 62.0427 43.0509 62.4927 43.651 62.6424C43.8011 62.6424 44.101 62.6424 44.2511 62.4927C58.501 57.9927 66.3011 42.8424 61.8011 28.5926C59.1011 20.0426 52.5009 13.5924 44.2511 10.8924Z" fill="white"/>
<ellipse cx="56.7301" cy="65.6974" rx="7.63636" ry="7.63636" fill="#8247E5"/>
<path d="M59.2205 64.025C59.0463 63.9255 58.8223 63.9255 58.6233 64.025L57.2297 64.8462L56.2841 65.3688L54.9154 66.19C54.7412 66.2896 54.5173 66.2896 54.3182 66.19L53.2481 65.543C53.074 65.4435 52.9495 65.2444 52.9495 65.0204V63.7762C52.9495 63.5771 53.0491 63.378 53.2481 63.2536L54.3182 62.6315C54.4924 62.532 54.7163 62.532 54.9154 62.6315L55.9855 63.2785C56.1597 63.378 56.2841 63.5771 56.2841 63.8011V64.6223L57.2297 64.0748V63.2287C57.2297 63.0297 57.1302 62.8306 56.9311 62.7062L54.9403 61.5366C54.7661 61.437 54.5422 61.437 54.3431 61.5366L52.3025 62.731C52.1034 62.8306 52.0039 63.0297 52.0039 63.2287V65.5679C52.0039 65.767 52.1034 65.9661 52.3025 66.0905L54.3182 67.2601C54.4924 67.3596 54.7163 67.3596 54.9154 67.2601L56.2841 66.4638L57.2297 65.9163L58.5984 65.12C58.7726 65.0204 58.9965 65.0204 59.1956 65.12L60.2657 65.7421C60.4398 65.8416 60.5643 66.0407 60.5643 66.2647V67.5089C60.5643 67.708 60.4647 67.9071 60.2657 68.0315L59.2205 68.6536C59.0463 68.7532 58.8223 68.7532 58.6233 68.6536L57.5532 68.0315C57.379 67.932 57.2546 67.7329 57.2546 67.5089V66.7126L56.309 67.2601V68.0813C56.309 68.2803 56.4085 68.4794 56.6076 68.6038L58.6233 69.7734C58.7975 69.873 59.0214 69.873 59.2205 69.7734L61.2362 68.6038C61.4104 68.5043 61.5348 68.3052 61.5348 68.0813V65.7172C61.5348 65.5181 61.4352 65.3191 61.2362 65.1946L59.2205 64.025Z" fill="white"/>
</svg>
