<svg width="72" height="73" viewBox="0 0 72 73" fill="none" xmlns="http://www.w3.org/2000/svg">
<path d="M36 64.2427C51.5168 64.2427 64 51.7594 64 36.2427C64 20.7259 51.5168 8.24268 36 8.24268C20.4832 8.24268 8 20.7259 8 36.2427C8 51.7594 20.4832 64.2427 36 64.2427Z" fill="#2775CA"/>
<path d="M43.6996 40.6756C43.6996 36.5923 41.2496 35.1923 36.3496 34.6091C32.8496 34.1423 32.1496 33.2091 32.1496 31.5756C32.1496 29.9421 33.3164 28.8923 35.6496 28.8923C37.7496 28.8923 38.9164 29.5923 39.4996 31.3423C39.6164 31.6923 39.9664 31.9256 40.3164 31.9256H42.1829C42.6496 31.9256 42.9996 31.5756 42.9996 31.1091V30.9923C42.5329 28.4256 40.4329 26.4423 37.7496 26.2091V23.4091C37.7496 22.9423 37.3996 22.5923 36.8164 22.4756H35.0664C34.5996 22.4756 34.2496 22.8256 34.1329 23.4091V26.0923C30.6329 26.5591 28.4164 28.8923 28.4164 31.8091C28.4164 35.6591 30.7496 37.1756 35.6496 37.7591C38.9164 38.3423 39.9664 39.0423 39.9664 40.9091C39.9664 42.7759 38.3329 44.0591 36.1164 44.0591C33.0829 44.0591 32.0329 42.7756 31.6829 41.0256C31.5664 40.5591 31.2164 40.3256 30.8664 40.3256H28.8829C28.4164 40.3256 28.0664 40.6756 28.0664 41.1423V41.2591C28.5329 44.1756 30.3996 46.2756 34.2496 46.8591V49.6591C34.2496 50.1256 34.5996 50.4756 35.1829 50.5923H36.9329C37.3996 50.5923 37.7496 50.2423 37.8664 49.6591V46.8591C41.3664 46.2756 43.6996 43.8256 43.6996 40.6756Z" fill="white"/>
<path d="M30.0484 52.9257C20.9484 49.6592 16.2816 39.5092 19.6651 30.5257C21.4151 25.6257 25.2651 21.8924 30.0484 20.1424C30.5151 19.9092 30.7484 19.5592 30.7484 18.9757V17.3424C30.7484 16.8757 30.5151 16.5257 30.0484 16.4092C29.9316 16.4092 29.6984 16.4092 29.5816 16.5257C18.4984 20.0257 12.4316 31.8092 15.9316 42.8924C18.0316 49.4257 23.0484 54.4424 29.5816 56.5424C30.0484 56.7757 30.5151 56.5424 30.6316 56.0757C30.7484 55.9592 30.7484 55.8424 30.7484 55.6092V53.9757C30.7484 53.6257 30.3984 53.1592 30.0484 52.9257ZM42.4151 16.5257C41.9484 16.2924 41.4816 16.5257 41.3651 16.9924C41.2484 17.1092 41.2484 17.2257 41.2484 17.4592V19.0924C41.2484 19.5592 41.5984 20.0257 41.9484 20.2592C51.0484 23.5257 55.7151 33.6757 52.3316 42.6592C50.5816 47.5592 46.7316 51.2924 41.9484 53.0424C41.4816 53.2757 41.2484 53.6257 41.2484 54.2092V55.8424C41.2484 56.3092 41.4816 56.6592 41.9484 56.7757C42.0651 56.7757 42.2984 56.7757 42.4151 56.6592C53.4984 53.1592 59.5651 41.3757 56.0651 30.2924C53.9651 23.6424 48.8316 18.6257 42.4151 16.5257Z" fill="white"/>
</svg>
