<svg width="24" height="24" viewBox="0 0 24 24" fill="none" xmlns="http://www.w3.org/2000/svg">
<g id="VET">
<g id="vechain vet logo">
<path id="Oval" d="M12 24C18.6274 24 24 18.6274 24 12C24 5.37258 18.6274 0 12 0C5.37258 0 0 5.37258 0 12C0 18.6274 5.37258 24 12 24Z" fill="#15BDFF"/>
<path id="Path" d="M11.0521 18.5505L5.27863 6.7845C5.23585 6.69639 5.2413 6.59249 5.29307 6.50935C5.34485 6.4262 5.43569 6.37547 5.53363 6.375H7.53463C7.64188 6.375 7.74238 6.435 7.78963 6.5295L12.0061 15.0652C12.3811 15.8302 13.4694 15.8302 13.8451 15.0652L18.0481 6.53625C18.0975 6.44109 18.1959 6.38148 18.3031 6.38175H18.5521C18.6999 6.38175 18.7936 6.53625 18.7269 6.66375L12.8919 18.5512C12.5161 19.3162 11.4286 19.3162 11.0521 18.5512V18.5505Z" fill="white"/>
</g>
</g>
</svg>
